<svg width="1180" height="717" viewBox="0 0 1180 717" fill="none" xmlns="http://www.w3.org/2000/svg">
<g clip-path="url(#clip0_2018_115)">
<path d="M581.3 72.3C597 72.3 609.8 85.1 609.8 100.8V111.8C609.8 127.5 597 140.3 581.3 140.3C565.6 140.3 552.8 127.5 552.8 111.8V100.8C552.8 85.1 565.5 72.3 581.3 72.3Z" stroke="#293240" stroke-width="4"/>
<path d="M508.8 229.3H655.8V203.3C655.8 176.8 634.3 155.3 607.8 155.3H556.8C530.3 155.3 508.8 176.8 508.8 203.3V229.3Z" stroke="#293240" stroke-width="4"/>
<path d="M621.8 179.3H542.8V229.3H621.8V179.3Z" stroke="#293240" stroke-width="4"/>
<path d="M582.8 193.3C588.9 193.3 593.8 198.2 593.8 204.3C593.8 210.4 588.9 215.3 582.8 215.3C576.7 215.3 571.8 210.4 571.8 204.3C571.8 198.3 576.7 193.3 582.8 193.3Z" stroke="#293240" stroke-width="4"/>
<path d="M618.2 65.8L627.8 66.3" stroke="#293240" stroke-width="4" stroke-linecap="square"/>
<path d="M623.8 138.8H628.8" stroke="#293240" stroke-width="4" stroke-linecap="square"/>
<path d="M643.1 138.8H672.2" stroke="#293240" stroke-width="4" stroke-linecap="square"/>
<path d="M628.8 83.3H645.8" stroke="#293240" stroke-width="4" stroke-linecap="square"/>
<path d="M636.8 119.3H659.8" stroke="#293240" stroke-width="4" stroke-linecap="square"/>
<path d="M631.8 101.3H635.8" stroke="#293240" stroke-width="4" stroke-linecap="square"/>
<path d="M649.8 101.3H672.8" stroke="#293240" stroke-width="4" stroke-linecap="square"/>
<path d="M639.2 65.8L672.3 66.3" stroke="#293240" stroke-width="4" stroke-linecap="square"/>
<path d="M659.2 83.3H672.3" stroke="#293240" stroke-width="4" stroke-linecap="square"/>
<path d="M749.726 569.364H1091.73" stroke="#00AAA8" stroke-width="4" stroke-linecap="square"/>
<path fill-rule="evenodd" clip-rule="evenodd" d="M1100.23 283.364H1083.73L1091.93 265.364L1100.23 283.364Z" fill="#00AAA8"/>
<path d="M1092.73 569.364L1092.53 284.064" stroke="#00AAA8" stroke-width="4" stroke-linecap="square"/>
<path d="M145.8 71.3H25.8V224.3H145.8V71.3Z" stroke="#293240" stroke-width="4"/>
<path d="M50.8 71.3V79.3C50.8 83.7 54.4 87.3 58.8 87.3H111.8C116.2 87.3 119.8 83.7 119.8 79.3V71.3H50.8Z" stroke="#293240" stroke-width="4"/>
<path d="M45.1 111.3H125.4" stroke="#293240" stroke-width="4" stroke-linecap="square"/>
<path d="M45.1 145.3H125.4" stroke="#293240" stroke-width="4" stroke-linecap="square"/>
<path d="M45.1 195.3H125.4" stroke="#293240" stroke-width="4" stroke-linecap="square"/>
<path d="M45.1 127.8H125.4" stroke="#293240" stroke-width="4" stroke-linecap="square"/>
<path d="M45.1 178.8H125.4" stroke="#293240" stroke-width="4" stroke-linecap="square"/>
<path d="M45.1 162.8H125.4" stroke="#293240" stroke-width="4" stroke-linecap="square"/>
<path d="M1155.8 136.3H1025.8V189.3H1155.8V136.3Z" stroke="#293240" stroke-width="4"/>
<path d="M1155.8 137.3H1127.8V203.3H1155.8V137.3Z" stroke="#293240" stroke-width="4"/>
<path d="M1172.8 76.3H1010.8V220.3H1172.8V76.3Z" stroke="#293240" stroke-width="4"/>
<path d="M1025.1 109.8H1075.3" stroke="#293240" stroke-width="4" stroke-linecap="square"/>
<path d="M1025.1 122.8H1075.3" stroke="#293240" stroke-width="4" stroke-linecap="square"/>
<path d="M1026.1 148.8H1153.3" stroke="#293240" stroke-width="4" stroke-linecap="square"/>
<path d="M1013.1 95.8H1171.3" stroke="#293240" stroke-width="4" stroke-linecap="square"/>
<path d="M1022.8 88.3C1023.9 88.3 1024.8 87.4046 1024.8 86.3C1024.8 85.1954 1023.9 84.3 1022.8 84.3C1021.7 84.3 1020.8 85.1954 1020.8 86.3C1020.8 87.4046 1021.7 88.3 1022.8 88.3Z" fill="#9A76CF" stroke="#293240" stroke-width="4"/>
<path d="M1035.8 88.3C1036.9 88.3 1037.8 87.4046 1037.8 86.3C1037.8 85.1954 1036.9 84.3 1035.8 84.3C1034.7 84.3 1033.8 85.1954 1033.8 86.3C1033.8 87.4046 1034.7 88.3 1035.8 88.3Z" fill="#9A76CF" stroke="#293240" stroke-width="4"/>
<path d="M195.8 155.3C199.114 155.3 201.8 152.614 201.8 149.3C201.8 145.986 199.114 143.3 195.8 143.3C192.486 143.3 189.8 145.986 189.8 149.3C189.8 152.614 192.486 155.3 195.8 155.3Z" stroke="#293240" stroke-width="4"/>
<path d="M204.8 149.3H425.8" stroke="#293240" stroke-width="4" stroke-linecap="square"/>
<path fill-rule="evenodd" clip-rule="evenodd" d="M424 141.1V157.6L442 149.4L424 141.1Z" fill="#293240"/>
<path d="M551.3 280.8C551.3 284.114 553.986 286.8 557.3 286.8C560.614 286.8 563.3 284.114 563.3 280.8C563.3 277.486 560.614 274.8 557.3 274.8C553.986 274.8 551.3 277.486 551.3 280.8Z" stroke="#293240" stroke-width="4"/>
<path d="M557.3 289.8V430.8" stroke="#293240" stroke-width="4" stroke-linecap="square"/>
<path fill-rule="evenodd" clip-rule="evenodd" d="M565.5 428.1H549L557.2 446.1L565.5 428.1Z" fill="#293240"/>
<path d="M510.026 24.664C511.026 24.664 511.826 24.564 512.626 24.264C513.426 23.964 514.126 23.564 514.726 23.164C515.326 22.664 515.826 22.164 516.226 21.564C516.626 20.964 516.926 20.364 517.226 19.664L515.826 18.864C515.426 19.964 514.726 20.764 513.926 21.464C513.126 22.064 512.026 22.464 510.826 22.464C509.326 22.464 508.126 21.964 507.226 21.064C506.326 20.164 505.826 18.764 505.826 16.964V11.964C505.826 10.264 506.226 8.864 506.926 7.964C507.726 6.964 508.826 6.564 510.226 6.564C511.426 6.564 512.426 6.864 513.126 7.464C513.826 8.064 514.126 8.764 514.126 9.764V11.064H517.026V4.764H514.126V6.464H514.026C513.726 5.964 513.326 5.564 512.626 5.064C511.926 4.564 511.026 4.464 509.726 4.464C508.626 4.464 507.526 4.664 506.526 5.164C505.526 5.564 504.626 6.264 503.926 7.064C503.226 7.864 502.626 8.964 502.126 10.264C501.726 11.564 501.426 12.964 501.426 14.664C501.426 16.164 501.626 17.464 502.026 18.664C502.426 19.864 502.926 20.964 503.726 21.864C504.426 22.764 505.326 23.464 506.426 23.964C507.526 24.464 508.626 24.664 510.026 24.664ZM526.626 24.364V22.664H524.826V3.064L519.326 4.164V5.564L521.126 5.964V22.664H519.326V24.364H526.626ZM532.126 7.364C532.826 7.364 533.326 7.164 533.726 6.764C534.126 6.364 534.326 5.864 534.326 5.264V5.164C534.326 4.564 534.126 4.064 533.726 3.664C533.326 3.264 532.826 3.064 532.126 3.064C531.426 3.064 530.926 3.264 530.526 3.664C530.126 4.064 529.926 4.564 529.926 5.164V5.264C529.926 5.864 530.126 6.364 530.526 6.764C530.926 7.164 531.426 7.364 532.126 7.364ZM535.826 24.364V22.664H534.026V9.364L528.526 10.464V11.864L530.326 12.264V22.664H528.526V24.364H535.826ZM544.726 24.664C545.626 24.664 546.426 24.564 547.026 24.264C547.726 24.064 548.326 23.664 548.826 23.264C549.326 22.864 549.726 22.464 550.026 21.964C550.326 21.464 550.626 21.064 550.726 20.564L549.326 19.764C549.026 20.464 548.526 21.064 547.926 21.464C547.326 21.964 546.426 22.164 545.426 22.164C544.326 22.164 543.326 21.764 542.626 21.064C541.926 20.364 541.626 19.264 541.626 17.964V16.964H551.026V16.064C551.026 15.064 550.826 14.064 550.526 13.264C550.226 12.464 549.826 11.764 549.226 11.164C548.626 10.564 547.926 10.064 547.126 9.764C546.326 9.464 545.426 9.264 544.426 9.264C543.426 9.264 542.526 9.464 541.626 9.764C540.826 10.164 540.126 10.664 539.526 11.264C538.926 11.964 538.426 12.764 538.126 13.664C537.826 14.564 537.626 15.664 537.626 16.764C537.626 17.864 537.826 18.964 538.126 19.864C538.426 20.764 538.926 21.664 539.526 22.264C540.126 22.964 540.826 23.464 541.726 23.864C542.626 24.464 543.626 24.664 544.726 24.664ZM547.226 15.464H541.626V15.064C541.626 13.764 541.826 12.764 542.326 12.064C542.826 11.464 543.526 11.164 544.426 11.164C545.326 11.164 546.026 11.464 546.526 12.164C547.026 12.864 547.226 13.764 547.226 15.164V15.464ZM560.426 24.364V22.664H558.726V14.264C558.726 13.864 558.826 13.464 559.026 13.164C559.226 12.864 559.426 12.664 559.726 12.464C560.026 12.264 560.326 12.164 560.626 12.064C560.926 11.964 561.326 11.964 561.626 11.964C562.526 11.964 563.226 12.164 563.626 12.664C564.026 13.164 564.226 13.964 564.226 15.064V22.664H562.526V24.364H569.726V22.664H567.926V14.864C567.926 13.064 567.526 11.664 566.826 10.764C566.126 9.864 564.826 9.364 563.026 9.364C562.426 9.364 561.926 9.464 561.526 9.564C561.126 9.664 560.726 9.964 560.326 10.164C559.926 10.364 559.726 10.664 559.426 11.064C559.226 11.364 559.026 11.764 558.926 12.064H558.826V9.364L553.426 10.464V11.864L555.226 12.264V22.664H553.426V24.364H560.426ZM576.226 24.564C577.126 24.564 577.926 24.464 578.626 24.364C579.326 24.264 579.826 24.164 580.126 23.964V22.564H576.726V11.464H580.126V9.764H576.726V5.764H574.926L573.926 8.164C573.726 8.664 573.526 9.064 573.226 9.264C572.926 9.564 572.526 9.664 571.826 9.664H571.226V11.464H573.126V21.664C573.126 22.664 573.326 23.364 573.826 23.864C574.326 24.364 575.126 24.564 576.226 24.564ZM595.426 24.664C596.226 24.664 597.026 24.564 597.626 24.264C598.326 23.964 598.826 23.664 599.326 23.264C599.826 22.864 600.226 22.464 600.526 21.964C600.826 21.464 601.026 20.964 601.226 20.564L599.926 19.764C599.626 20.464 599.126 21.064 598.526 21.564C597.926 22.064 597.026 22.264 596.026 22.264C594.926 22.264 594.026 21.864 593.426 21.164C592.826 20.464 592.426 19.364 592.426 18.064V15.364C592.426 14.064 592.726 12.964 593.426 12.164C594.126 11.364 595.026 10.964 596.226 10.964C596.726 10.964 597.126 10.964 597.426 11.064C597.726 11.164 597.926 11.164 598.126 11.264V11.364C597.826 11.464 597.526 11.764 597.226 12.064C596.926 12.364 596.926 12.764 596.926 13.164C596.926 13.764 597.126 14.164 597.426 14.564C597.726 14.964 598.226 15.064 598.926 15.064C599.626 15.064 600.126 14.864 600.426 14.464C600.726 14.064 600.926 13.564 600.926 12.864C600.926 11.764 600.426 10.964 599.526 10.264C598.626 9.564 597.326 9.264 595.626 9.264C594.626 9.264 593.626 9.464 592.726 9.764C591.826 10.064 591.026 10.564 590.426 11.264C589.726 11.864 589.226 12.664 588.926 13.664C588.526 14.664 588.326 15.664 588.326 16.864C588.326 17.964 588.526 18.964 588.826 19.964C589.126 20.864 589.626 21.764 590.126 22.364C590.726 23.064 591.426 23.564 592.326 23.964C593.226 24.464 594.226 24.664 595.426 24.664ZM610.126 24.664C611.126 24.664 612.126 24.464 612.926 24.164C613.726 23.864 614.526 23.364 615.126 22.664C615.726 21.964 616.226 21.164 616.526 20.264C616.826 19.364 617.026 18.264 617.026 17.064C617.026 15.864 616.826 14.764 616.526 13.864C616.226 12.964 615.726 12.164 615.126 11.464C614.526 10.764 613.826 10.264 612.926 9.964C612.126 9.664 611.126 9.464 610.126 9.464C609.126 9.464 608.126 9.664 607.326 9.964C606.526 10.264 605.726 10.764 605.126 11.464C604.526 12.164 604.026 12.964 603.726 13.864C603.426 14.764 603.226 15.864 603.226 17.064C603.226 18.264 603.426 19.364 603.726 20.264C604.026 21.164 604.526 21.964 605.126 22.664C605.726 23.364 606.426 23.864 607.326 24.164C608.126 24.464 609.026 24.664 610.126 24.664ZM610.126 22.864C609.126 22.864 608.326 22.564 607.826 21.964C607.326 21.364 607.126 20.464 607.126 19.364V14.864C607.126 13.764 607.326 12.864 607.826 12.264C608.326 11.664 609.026 11.364 610.126 11.364C611.226 11.364 611.926 11.664 612.426 12.264C612.926 12.864 613.126 13.764 613.126 14.864V19.364C613.126 20.464 612.926 21.364 612.426 21.964C611.826 22.564 611.126 22.864 610.126 22.864ZM629.326 24.664L634.826 23.564V22.164L633.026 21.764V3.064L627.526 4.164V5.564L629.326 5.964V11.864H629.226C628.926 11.164 628.526 10.664 627.826 10.164C627.126 9.664 626.326 9.364 625.226 9.364C624.326 9.364 623.526 9.564 622.826 9.864C622.126 10.264 621.526 10.764 621.026 11.364C620.526 12.064 620.126 12.864 619.826 13.764C619.526 14.664 619.426 15.764 619.426 16.964C619.426 18.164 619.526 19.164 619.826 20.164C620.126 21.064 620.526 21.864 621.026 22.564C621.526 23.264 622.126 23.764 622.826 24.064C623.526 24.464 624.326 24.564 625.226 24.564C626.226 24.564 627.126 24.264 627.826 23.764C628.526 23.264 628.926 22.664 629.226 21.964H629.326V24.664ZM626.426 22.364C625.526 22.364 624.726 22.064 624.126 21.364C623.526 20.664 623.226 19.864 623.226 18.664V15.264C623.226 14.064 623.526 13.164 624.126 12.564C624.726 11.964 625.426 11.564 626.426 11.564C627.226 11.564 627.926 11.764 628.426 12.264C628.926 12.764 629.326 13.364 629.326 14.164V19.564C629.326 20.364 629.026 21.064 628.426 21.464C627.826 21.864 627.226 22.364 626.426 22.364ZM643.726 24.664C644.626 24.664 645.426 24.564 646.026 24.264C646.726 24.064 647.326 23.664 647.826 23.264C648.326 22.864 648.726 22.464 649.026 21.964C649.326 21.464 649.626 21.064 649.726 20.564L648.326 19.764C648.026 20.464 647.526 21.064 646.926 21.464C646.326 21.964 645.426 22.164 644.426 22.164C643.326 22.164 642.326 21.764 641.626 21.064C640.926 20.364 640.626 19.264 640.626 17.964V16.964H650.026V16.064C650.026 15.064 649.826 14.064 649.526 13.264C649.226 12.464 648.826 11.764 648.226 11.164C647.626 10.564 646.926 10.064 646.126 9.764C645.326 9.464 644.426 9.264 643.426 9.264C642.426 9.264 641.526 9.464 640.626 9.764C639.826 10.164 639.126 10.664 638.526 11.264C637.926 11.964 637.426 12.764 637.126 13.664C636.826 14.564 636.626 15.664 636.626 16.764C636.626 17.864 636.826 18.964 637.126 19.864C637.426 20.764 637.926 21.664 638.526 22.264C639.126 22.964 639.826 23.464 640.726 23.864C641.626 24.464 642.626 24.664 643.726 24.664ZM646.326 15.464H640.726V15.064C640.726 13.764 640.926 12.764 641.426 12.064C641.926 11.464 642.626 11.164 643.526 11.164C644.426 11.164 645.126 11.464 645.626 12.164C646.126 12.864 646.326 13.764 646.326 15.164V15.464ZM660.126 24.364V22.664H657.726V14.164C657.726 13.864 657.826 13.464 657.926 13.164C658.126 12.864 658.326 12.564 658.526 12.264C658.826 11.964 659.026 11.764 659.426 11.564C659.726 11.364 660.026 11.264 660.426 11.264C660.626 11.264 660.726 11.264 660.826 11.264V11.364C660.726 11.464 660.526 11.564 660.426 11.764C660.326 11.964 660.226 12.164 660.226 12.464C660.226 12.964 660.426 13.364 660.726 13.664C661.026 13.964 661.526 14.164 662.226 14.164C662.926 14.164 663.326 13.964 663.726 13.564C664.126 13.164 664.226 12.664 664.226 11.864C664.226 11.064 663.926 10.364 663.426 9.964C662.926 9.464 662.226 9.264 661.326 9.264C660.826 9.264 660.426 9.364 660.026 9.464C659.626 9.564 659.326 9.864 659.026 10.064C658.726 10.364 658.526 10.564 658.326 10.964C658.126 11.364 657.926 11.664 657.826 11.964H657.726V9.364L652.326 10.464V11.864L654.126 12.264V22.664H652.326V24.364H660.126Z" fill="#17202D"/>
<path fill-rule="evenodd" clip-rule="evenodd" d="M539.7 523.4H532.4C527.4 523.4 523.2 527.5 523.2 532.6V571.9C523.2 576.9 527.3 581.1 532.4 581.1H539.7V577.4H532.4C529.8 577.4 526.9 574.5 526.9 571.9V532.5C526.9 529.9 529.8 527 532.4 527H539.7V523.4Z" fill="#00AAA8"/>
<path fill-rule="evenodd" clip-rule="evenodd" d="M597.4 646H601V664.1L597.4 665.1V646Z" fill="#00AAA8"/>
<path fill-rule="evenodd" clip-rule="evenodd" d="M634.9 606.7H638.5V574.6H634.9V606.7Z" fill="#00AAA8"/>
<path fill-rule="evenodd" clip-rule="evenodd" d="M591.9 519.7V525.2C591.9 527.8 595.7 531.6 598.3 531.6H609.3V528H600.1C597.7 528.1 595.6 526.3 595.5 523.8V523.4V519.7H591.9Z" fill="#00AAA8"/>
<path fill-rule="evenodd" clip-rule="evenodd" d="M622.1 563.7V534.4C622.1 531.8 618.3 528 615.7 528H609.3V531.7H613.9C616.3 531.6 618.4 533.4 618.5 535.9V536.3V563.7H622.1Z" fill="#00AAA8"/>
<path fill-rule="evenodd" clip-rule="evenodd" d="M618.4 563.7V568.3C618.4 570.9 622.2 574.7 624.8 574.7H673.3L673.2 571H626.6C624.2 571.1 622.1 569.3 622 566.8V566.4V563.7H618.4Z" fill="#00AAA8"/>
<path fill-rule="evenodd" clip-rule="evenodd" d="M572.7 556.3V571C572.7 573.6 576.5 577.4 579.1 577.4H602V573.7H581C578.6 573.8 576.5 572 576.4 569.5V569.1V556.3H572.7Z" fill="#00AAA8"/>
<path fill-rule="evenodd" clip-rule="evenodd" d="M614.8 598.4V580.1C614.8 577.5 611 573.7 608.4 573.7H602V577.4H606.6C609 577.3 611.1 579.1 611.2 581.6V582V598.5H614.8V598.4Z" fill="#00AAA8"/>
<path fill-rule="evenodd" clip-rule="evenodd" d="M542.5 599.3H584.6C587.2 599.3 591 595.5 591 592.9V577.4H587.3V591.1C587.4 593.5 585.6 595.6 583.1 595.7H582.7H542.5V599.3Z" fill="#00AAA8"/>
<path fill-rule="evenodd" clip-rule="evenodd" d="M542.5 595.7H537.9C535.3 595.7 531.5 599.5 531.5 602.1V613.1H535.2V603.9C535.1 601.5 536.9 599.4 539.4 599.3H539.8H542.5V595.7Z" fill="#00AAA8"/>
<path fill-rule="evenodd" clip-rule="evenodd" d="M567.2 610.3H570.8V599.3H567.2V610.3Z" fill="#00AAA8"/>
<path d="M582.3 488.6C631.6 488.6 671.5 528.5 671.5 577.8C671.5 627.1 631.5 667 582.3 667C533.1 667 493.1 627.1 493.1 577.8C493.1 528.5 533 488.6 582.3 488.6Z" stroke="#00AAA8" stroke-width="5"/>
<path fill-rule="evenodd" clip-rule="evenodd" d="M498.5 556.2H523.7V552.5H498.5V556.2Z" fill="#00AAA8"/>
<path d="M545.8 518.3H550.8C553 518.3 554.8 520.1 554.8 522.3V527.3C554.8 529.5 553 531.3 550.8 531.3H545.8C543.6 531.3 541.8 529.5 541.8 527.3V522.3C541.8 520.1 543.6 518.3 545.8 518.3Z" stroke="#00AAA8" stroke-width="4"/>
<path d="M590.8 506.3H595.8C598 506.3 599.8 508.1 599.8 510.3V515.3C599.8 517.5 598 519.3 595.8 519.3H590.8C588.6 519.3 586.8 517.5 586.8 515.3V510.3C586.8 508.1 588.6 506.3 590.8 506.3Z" stroke="#00AAA8" stroke-width="4"/>
<path d="M610.8 598.3H615.8C618 598.3 619.8 600.1 619.8 602.3V607.3C619.8 609.5 618 611.3 615.8 611.3H610.8C608.6 611.3 606.8 609.5 606.8 607.3V602.3C606.8 600.1 608.6 598.3 610.8 598.3Z" stroke="#00AAA8" stroke-width="4"/>
<path d="M633.8 607.3H638.8C641 607.3 642.8 609.1 642.8 611.3V616.3C642.8 618.5 641 620.3 638.8 620.3H633.8C631.6 620.3 629.8 618.5 629.8 616.3V611.3C629.8 609.1 631.6 607.3 633.8 607.3Z" stroke="#00AAA8" stroke-width="4"/>
<path d="M530.8 614.3H535.8C538 614.3 539.8 616.1 539.8 618.3V623.3C539.8 625.5 538 627.3 535.8 627.3H530.8C528.6 627.3 526.8 625.5 526.8 623.3V618.3C526.8 616.1 528.6 614.3 530.8 614.3Z" stroke="#00AAA8" stroke-width="4"/>
<path d="M566.8 611.3H571.8C574 611.3 575.8 613.1 575.8 615.3V620.3C575.8 622.5 574 624.3 571.8 624.3H566.8C564.6 624.3 562.8 622.5 562.8 620.3V615.3C562.8 613.1 564.6 611.3 566.8 611.3Z" stroke="#00AAA8" stroke-width="4"/>
<path d="M596.8 631.3H601.8C604 631.3 605.8 633.1 605.8 635.3V640.3C605.8 642.5 604 644.3 601.8 644.3H596.8C594.6 644.3 592.8 642.5 592.8 640.3V635.3C592.8 633.1 594.6 631.3 596.8 631.3Z" stroke="#00AAA8" stroke-width="4"/>
<path d="M545.8 572.3H550.8C553 572.3 554.8 574.1 554.8 576.3V581.3C554.8 583.5 553 585.3 550.8 585.3H545.8C543.6 585.3 541.8 583.5 541.8 581.3V576.3C541.8 574.1 543.6 572.3 545.8 572.3Z" stroke="#00AAA8" stroke-width="4"/>
<path d="M571.8 542.3H576.8C579 542.3 580.8 544.1 580.8 546.3V551.3C580.8 553.5 579 555.3 576.8 555.3H571.8C569.6 555.3 567.8 553.5 567.8 551.3V546.3C567.8 544.1 569.6 542.3 571.8 542.3Z" stroke="#00AAA8" stroke-width="4"/>
<path d="M8.526 24.664C9.526 24.664 10.326 24.564 11.126 24.264C11.926 23.964 12.626 23.564 13.226 23.164C13.826 22.664 14.326 22.164 14.726 21.564C15.126 20.964 15.426 20.364 15.726 19.664L14.326 18.864C13.926 19.964 13.226 20.764 12.426 21.464C11.626 22.064 10.526 22.464 9.326 22.464C7.826 22.464 6.626 21.964 5.726 21.064C4.826 20.164 4.32599 18.664 4.32599 16.864V11.864C4.32599 10.164 4.72599 8.764 5.42599 7.864C6.12599 6.964 7.326 6.464 8.726 6.464C9.926 6.464 10.926 6.764 11.626 7.364C12.326 7.964 12.626 8.664 12.626 9.664V10.964H15.526V4.764H12.626V6.464H12.526C12.226 5.964 11.826 5.564 11.126 5.064C10.426 4.664 9.426 4.464 8.226 4.464C7.126 4.464 6.126 4.664 5.026 5.064C3.926 5.464 3.22599 6.164 2.42599 7.064C1.62599 7.964 1.12599 8.964 0.625995 10.264C0.125995 11.564 -0.0740051 12.964 -0.0740051 14.664C-0.0740051 16.164 0.125995 17.464 0.525995 18.664C0.925995 19.864 1.42599 20.964 2.22599 21.864C3.02599 22.764 3.82599 23.464 4.92599 23.964C6.02599 24.464 7.226 24.664 8.526 24.664ZM25.126 24.364V22.664H23.326V3.064L17.826 4.164V5.564L19.626 5.964V22.664H17.826V24.364H25.126ZM30.726 7.364C31.426 7.364 31.926 7.164 32.326 6.764C32.726 6.364 32.926 5.864 32.926 5.264V5.164C32.926 4.564 32.726 4.064 32.326 3.664C31.926 3.264 31.426 3.064 30.726 3.064C30.026 3.064 29.526 3.264 29.126 3.664C28.726 4.064 28.526 4.564 28.526 5.164V5.264C28.526 5.864 28.726 6.364 29.126 6.764C29.526 7.164 30.026 7.364 30.726 7.364ZM34.326 24.364V22.664H32.526V9.364L27.026 10.464V11.864L28.826 12.264V22.664H27.026V24.364H34.326ZM43.326 24.664C44.226 24.664 45.026 24.564 45.626 24.264C46.326 24.064 46.926 23.664 47.426 23.264C47.926 22.864 48.326 22.464 48.626 21.964C48.926 21.464 49.226 21.064 49.326 20.564L47.926 19.764C47.626 20.464 47.126 21.064 46.526 21.464C45.926 21.964 45.026 22.164 44.026 22.164C42.926 22.164 41.926 21.764 41.226 21.064C40.526 20.364 40.226 19.264 40.226 17.964V16.964H49.626V16.064C49.626 15.064 49.426 14.064 49.126 13.264C48.826 12.464 48.426 11.764 47.826 11.164C47.226 10.564 46.526 10.064 45.726 9.764C44.926 9.464 44.026 9.264 43.026 9.264C42.026 9.264 41.126 9.464 40.226 9.764C39.326 10.064 38.726 10.664 38.126 11.264C37.526 11.964 37.026 12.764 36.726 13.664C36.426 14.564 36.226 15.664 36.226 16.764C36.226 17.864 36.426 18.964 36.726 19.864C37.026 20.764 37.526 21.664 38.126 22.264C38.726 22.964 39.426 23.464 40.326 23.864C41.226 24.264 42.126 24.664 43.326 24.664ZM45.826 15.464H40.226V15.064C40.226 13.764 40.426 12.764 40.926 12.064C41.426 11.364 42.126 11.164 43.026 11.164C43.926 11.164 44.626 11.464 45.126 12.164C45.626 12.764 45.826 13.764 45.826 15.164V15.464ZM59.026 24.364V22.664H57.326V14.264C57.326 13.864 57.426 13.464 57.626 13.164C57.726 12.864 57.926 12.664 58.226 12.464C58.526 12.264 58.826 12.164 59.126 12.064C59.426 11.964 59.826 11.964 60.126 11.964C61.026 11.964 61.726 12.164 62.126 12.664C62.526 13.164 62.726 13.964 62.726 15.064V22.664H61.026V24.364H68.226V22.664H66.426V14.864C66.426 13.064 66.026 11.664 65.326 10.764C64.626 9.864 63.326 9.364 61.526 9.364C60.926 9.364 60.426 9.464 60.026 9.564C59.626 9.664 59.226 9.964 58.826 10.164C58.426 10.364 58.226 10.764 57.926 11.064C57.626 11.364 57.526 11.764 57.426 12.064H57.226V9.364L51.826 10.464V11.864L53.626 12.264V22.664H51.826V24.364H59.026ZM74.826 24.564C75.726 24.564 76.526 24.464 77.226 24.364C77.926 24.264 78.426 24.164 78.726 23.964V22.564H75.326V11.464H78.726V9.764H75.326V5.764H73.526L72.526 8.164C72.326 8.664 72.126 9.064 71.826 9.264C71.526 9.464 71.126 9.664 70.426 9.664H69.826V11.464H71.726V21.664C71.726 22.664 71.926 23.364 72.426 23.864C72.926 24.364 73.726 24.564 74.826 24.564ZM93.926 24.664C94.726 24.664 95.526 24.564 96.126 24.264C96.826 23.964 97.326 23.664 97.826 23.264C98.326 22.864 98.726 22.464 99.026 21.964C99.326 21.464 99.526 20.964 99.726 20.564L98.426 19.764C98.126 20.464 97.626 21.064 97.026 21.564C96.426 22.064 95.526 22.264 94.526 22.264C93.426 22.264 92.526 21.864 91.926 21.164C91.326 20.464 90.926 19.364 90.926 18.064V15.364C90.926 14.064 91.226 12.964 91.926 12.164C92.626 11.364 93.526 10.964 94.726 10.964C95.226 10.964 95.626 10.964 95.926 11.064C96.226 11.164 96.426 11.164 96.626 11.264V11.364C96.326 11.464 96.026 11.764 95.726 12.064C95.526 12.364 95.426 12.764 95.426 13.164C95.426 13.764 95.626 14.164 95.926 14.564C96.226 14.964 96.726 15.064 97.426 15.064C98.126 15.064 98.626 14.864 98.926 14.464C99.326 14.064 99.426 13.564 99.426 12.864C99.426 11.764 98.926 10.964 98.026 10.264C97.126 9.564 95.826 9.264 94.126 9.264C93.126 9.264 92.126 9.464 91.226 9.764C90.326 10.064 89.526 10.564 88.926 11.264C88.326 11.964 87.726 12.664 87.426 13.664C87.026 14.664 86.826 15.664 86.826 16.864C86.826 17.964 87.026 18.964 87.326 19.964C87.626 20.964 88.126 21.764 88.626 22.364C89.226 23.064 89.926 23.564 90.826 23.964C91.826 24.464 92.826 24.664 93.926 24.664ZM108.626 24.364V22.664H106.926V14.264C106.926 13.864 107.026 13.464 107.226 13.164C107.426 12.864 107.626 12.664 107.926 12.464C108.226 12.264 108.526 12.164 108.826 12.064C109.126 11.964 109.526 11.964 109.826 11.964C110.726 11.964 111.426 12.164 111.826 12.664C112.226 13.164 112.426 13.964 112.426 15.064V22.664H110.726V24.364H117.926V22.664H116.126V14.864C116.126 13.064 115.726 11.664 115.026 10.764C114.326 9.864 113.026 9.364 111.226 9.364C110.626 9.364 110.126 9.464 109.726 9.564C109.326 9.664 108.926 9.964 108.526 10.164C108.126 10.364 107.926 10.664 107.626 11.064C107.426 11.364 107.226 11.764 107.126 12.064H107.026V3.064L101.526 4.164V5.564L103.326 5.964V22.664H101.526V24.364H108.626ZM130.926 24.664C131.426 24.664 131.926 24.564 132.326 24.464C132.826 24.364 133.126 24.264 133.426 24.064V22.664H131.626V14.164C131.626 12.664 131.126 11.464 130.226 10.564C129.326 9.664 127.926 9.264 126.026 9.264C125.026 9.264 124.226 9.364 123.426 9.564C122.726 9.764 122.026 10.064 121.526 10.364C121.026 10.664 120.626 11.064 120.426 11.464C120.126 11.864 120.026 12.364 120.026 12.764C120.026 13.364 120.226 13.764 120.526 14.164C120.826 14.564 121.326 14.664 121.826 14.664C122.426 14.664 122.926 14.464 123.226 14.164C123.526 13.864 123.726 13.364 123.726 12.864C123.726 12.464 123.626 12.164 123.426 11.864C123.226 11.664 123.026 11.464 122.926 11.364C123.326 11.164 124.026 10.964 124.826 10.964C125.926 10.964 126.626 11.264 127.126 11.864C127.626 12.464 127.826 13.364 127.826 14.464V16.264H125.826C123.626 16.264 122.026 16.664 120.926 17.364C119.926 18.064 119.326 19.164 119.326 20.564C119.326 21.864 119.726 22.864 120.426 23.564C121.126 24.264 122.226 24.664 123.826 24.664C124.426 24.664 125.026 24.564 125.426 24.464C125.926 24.364 126.226 24.164 126.626 23.864C126.926 23.664 127.226 23.364 127.426 23.064C127.626 22.764 127.826 22.464 127.926 22.164H128.026V22.264C128.026 22.964 128.226 23.564 128.626 24.064C129.326 24.464 130.026 24.664 130.926 24.664ZM125.526 22.464C124.826 22.464 124.326 22.364 123.926 22.064C123.526 21.764 123.326 21.264 123.326 20.664V20.164C123.326 19.464 123.526 18.864 124.026 18.464C124.526 18.064 125.326 17.864 126.426 17.864H128.026V20.264C128.026 21.064 127.826 21.664 127.326 22.064C126.826 22.264 126.226 22.464 125.526 22.464ZM143.226 24.364V22.664H140.826V14.164C140.826 13.864 140.926 13.464 141.026 13.164C141.226 12.864 141.426 12.564 141.626 12.264C141.926 11.964 142.126 11.764 142.526 11.564C142.826 11.364 143.126 11.264 143.526 11.264C143.726 11.264 143.826 11.264 143.926 11.264V11.364C143.826 11.464 143.626 11.564 143.526 11.764C143.426 11.964 143.326 12.164 143.326 12.464C143.326 12.964 143.526 13.364 143.826 13.664C144.126 13.964 144.626 14.164 145.326 14.164C145.926 14.164 146.426 13.964 146.826 13.564C147.226 13.164 147.326 12.664 147.326 11.864C147.326 11.064 147.026 10.364 146.526 9.964C146.026 9.464 145.326 9.264 144.426 9.264C143.926 9.264 143.526 9.364 143.126 9.464C142.726 9.564 142.426 9.864 142.126 10.064C141.826 10.264 141.626 10.564 141.426 10.964C141.226 11.264 141.026 11.664 140.926 11.964H140.826V9.364L135.426 10.464V11.864L137.226 12.264V22.664H135.426V24.364H143.226ZM153.426 24.564C154.326 24.564 155.126 24.464 155.826 24.364C156.526 24.264 157.026 24.164 157.326 23.964V22.564H153.926V11.464H157.326V9.764H153.926V5.764H152.226L151.226 8.164C151.026 8.664 150.826 9.064 150.526 9.264C150.226 9.464 149.826 9.664 149.126 9.664H148.526V11.464H150.426V21.664C150.426 22.664 150.626 23.364 151.126 23.864C151.526 24.364 152.326 24.564 153.426 24.564ZM165.226 24.664C166.926 24.664 168.226 24.264 169.226 23.464C170.226 22.664 170.726 21.564 170.726 20.064C170.726 18.664 170.326 17.664 169.526 16.964C168.726 16.264 167.626 15.764 166.026 15.364L164.726 15.064C163.926 14.864 163.426 14.664 163.026 14.264C162.726 13.964 162.526 13.464 162.526 12.964C162.526 11.764 163.326 11.164 164.926 11.164C165.926 11.164 166.626 11.364 167.126 11.764C167.626 12.164 167.826 12.664 167.826 13.364V14.064H170.226V9.764H167.826V11.164H167.726C167.626 10.664 167.226 10.264 166.626 9.964C166.026 9.664 165.326 9.464 164.326 9.464C162.726 9.464 161.526 9.864 160.526 10.664C159.526 11.464 159.126 12.564 159.126 13.964C159.126 15.264 159.526 16.264 160.226 16.964C161.026 17.664 162.126 18.264 163.726 18.664L165.126 19.064C165.826 19.264 166.326 19.464 166.726 19.764C167.126 20.064 167.226 20.464 167.226 20.964C167.226 22.264 166.326 22.864 164.426 22.864C163.426 22.864 162.626 22.664 162.126 22.264C161.626 21.864 161.426 21.264 161.426 20.564V20.064H159.226V24.464H161.626V22.964H161.726C161.826 23.464 162.226 23.864 162.826 24.264C163.426 24.464 164.226 24.664 165.226 24.664Z" fill="#17202D"/>
<path d="M1014.73 24.664C1015.73 24.664 1016.53 24.564 1017.33 24.264C1018.13 23.964 1018.83 23.564 1019.43 23.164C1020.03 22.664 1020.53 22.164 1020.93 21.564C1021.33 20.964 1021.63 20.364 1021.93 19.664L1020.53 18.864C1020.13 19.964 1019.43 20.764 1018.63 21.464C1017.83 22.064 1016.73 22.464 1015.53 22.464C1014.03 22.464 1012.83 21.964 1011.93 21.064C1011.03 20.164 1010.53 18.764 1010.53 16.964V11.964C1010.53 10.264 1010.93 8.864 1011.63 7.964C1012.43 6.964 1013.53 6.564 1014.93 6.564C1016.13 6.564 1017.13 6.864 1017.83 7.464C1018.53 8.064 1018.83 8.764 1018.83 9.764V11.064H1021.73V4.764H1018.83V6.464H1018.73C1018.43 5.964 1018.03 5.564 1017.33 5.064C1016.63 4.664 1015.73 4.464 1014.43 4.464C1013.33 4.464 1012.23 4.664 1011.23 5.164C1010.23 5.664 1009.33 6.264 1008.63 7.064C1007.93 7.964 1007.33 8.964 1006.83 10.264C1006.43 11.564 1006.13 12.964 1006.13 14.664C1006.13 16.164 1006.33 17.464 1006.73 18.664C1007.13 19.864 1007.63 20.964 1008.43 21.864C1009.13 22.764 1010.03 23.464 1011.13 23.964C1012.23 24.464 1013.43 24.664 1014.73 24.664ZM1031.33 24.364V22.664H1029.53V3.064L1024.03 4.164V5.564L1025.83 5.964V22.664H1024.03V24.364H1031.33ZM1036.93 7.364C1037.63 7.364 1038.13 7.164 1038.53 6.764C1038.93 6.364 1039.13 5.864 1039.13 5.264V5.164C1039.13 4.564 1038.93 4.064 1038.53 3.664C1038.13 3.264 1037.63 3.064 1036.93 3.064C1036.23 3.064 1035.73 3.264 1035.33 3.664C1034.93 4.064 1034.73 4.564 1034.73 5.164V5.264C1034.73 5.864 1034.93 6.364 1035.33 6.764C1035.73 7.164 1036.23 7.364 1036.93 7.364ZM1040.53 24.364V22.664H1038.73V9.364L1033.23 10.464V11.864L1035.03 12.264V22.664H1033.23V24.364H1040.53ZM1049.53 24.664C1050.43 24.664 1051.23 24.564 1051.83 24.264C1052.53 24.064 1053.13 23.664 1053.63 23.264C1054.13 22.864 1054.53 22.464 1054.83 21.964C1055.13 21.464 1055.43 21.064 1055.53 20.564L1054.13 19.764C1053.83 20.464 1053.33 21.064 1052.73 21.464C1052.13 21.964 1051.23 22.164 1050.23 22.164C1049.13 22.164 1048.13 21.764 1047.43 21.064C1046.73 20.364 1046.43 19.264 1046.43 17.964V16.964H1055.83V16.064C1055.83 15.064 1055.63 14.064 1055.33 13.264C1055.03 12.464 1054.63 11.764 1054.03 11.164C1053.43 10.564 1052.73 10.064 1051.93 9.764C1051.13 9.464 1050.23 9.264 1049.23 9.264C1048.23 9.264 1047.33 9.464 1046.43 9.764C1045.53 10.064 1044.93 10.664 1044.33 11.264C1043.73 11.964 1043.23 12.764 1042.93 13.664C1042.63 14.564 1042.43 15.664 1042.43 16.764C1042.43 17.864 1042.63 18.964 1042.93 19.864C1043.23 20.764 1043.73 21.664 1044.33 22.264C1044.93 22.964 1045.63 23.464 1046.53 23.864C1047.43 24.464 1048.43 24.664 1049.53 24.664ZM1052.03 15.464H1046.43V15.064C1046.43 13.764 1046.63 12.764 1047.13 12.064C1047.63 11.464 1048.33 11.164 1049.23 11.164C1050.13 11.164 1050.83 11.464 1051.33 12.164C1051.83 12.864 1052.03 13.764 1052.03 15.164V15.464ZM1065.23 24.364V22.664H1063.53V14.264C1063.53 13.864 1063.63 13.464 1063.83 13.164C1064.03 12.864 1064.23 12.664 1064.53 12.464C1064.83 12.264 1065.13 12.164 1065.43 12.064C1065.73 11.964 1066.13 11.964 1066.43 11.964C1067.33 11.964 1068.03 12.164 1068.43 12.664C1068.83 13.164 1069.03 13.964 1069.03 15.064V22.664H1067.33V24.364H1074.53V22.664H1072.73V14.864C1072.73 13.064 1072.33 11.664 1071.63 10.764C1070.93 9.864 1069.63 9.364 1067.83 9.364C1067.23 9.364 1066.73 9.464 1066.33 9.564C1065.93 9.664 1065.53 9.964 1065.13 10.164C1064.73 10.364 1064.53 10.664 1064.23 11.064C1064.03 11.364 1063.83 11.764 1063.73 12.064H1063.63V9.364L1058.23 10.464V11.864L1060.03 12.264V22.664H1058.23V24.364H1065.23ZM1081.03 24.564C1081.93 24.564 1082.73 24.464 1083.43 24.364C1084.13 24.264 1084.63 24.164 1084.93 23.964V22.564H1081.53V11.464H1084.93V9.764H1081.53V5.764H1079.73L1078.73 8.164C1078.53 8.664 1078.33 9.064 1078.03 9.264C1077.73 9.464 1077.33 9.664 1076.63 9.664H1076.03V11.464H1077.93V21.664C1077.93 22.664 1078.13 23.364 1078.63 23.864C1079.13 24.364 1079.93 24.564 1081.03 24.564ZM1102.23 24.664C1103.13 24.664 1103.93 24.464 1104.63 24.164C1105.33 23.764 1105.93 23.264 1106.43 22.664C1106.93 22.064 1107.33 21.164 1107.63 20.264C1107.93 19.364 1108.03 18.264 1108.03 17.064C1108.03 15.864 1107.93 14.864 1107.63 13.864C1107.33 12.964 1106.93 12.164 1106.43 11.464C1105.93 10.764 1105.33 10.264 1104.63 9.964C1103.93 9.564 1103.13 9.464 1102.23 9.464C1101.13 9.464 1100.33 9.764 1099.63 10.264C1098.93 10.764 1098.53 11.364 1098.23 11.964H1098.13V3.164L1092.63 4.264V5.664L1094.43 6.064V24.464H1096.13L1097.93 22.264H1098.03C1098.33 22.964 1098.83 23.564 1099.53 24.064C1100.13 24.464 1101.13 24.664 1102.23 24.664ZM1101.03 22.364C1100.23 22.364 1099.53 22.164 1099.03 21.664C1098.43 21.164 1098.13 20.564 1098.13 19.764V14.364C1098.13 13.564 1098.43 12.864 1099.03 12.464C1099.63 11.964 1100.33 11.764 1101.03 11.764C1101.93 11.764 1102.73 12.064 1103.33 12.764C1103.93 13.364 1104.23 14.264 1104.23 15.464V18.864C1104.23 20.064 1103.93 20.964 1103.33 21.564C1102.73 22.064 1101.93 22.364 1101.03 22.364ZM1114.03 7.364C1114.73 7.364 1115.23 7.164 1115.63 6.764C1116.03 6.364 1116.23 5.864 1116.23 5.264V5.164C1116.23 4.564 1116.03 4.064 1115.63 3.664C1115.23 3.264 1114.73 3.064 1114.03 3.064C1113.33 3.064 1112.83 3.264 1112.43 3.664C1112.03 4.064 1111.83 4.564 1111.83 5.164V5.264C1111.83 5.864 1112.03 6.364 1112.43 6.764C1112.83 7.164 1113.33 7.364 1114.03 7.364ZM1117.73 24.364V22.664H1115.93V9.364L1110.43 10.464V11.864L1112.23 12.264V22.664H1110.43V24.364H1117.73ZM1126.63 24.364V22.664H1124.83V3.064L1119.33 4.164V5.564L1121.13 5.964V22.664H1119.33V24.364H1126.63ZM1135.53 24.364V22.664H1133.73V3.064L1128.23 4.164V5.564L1130.03 5.964V22.664H1128.23V24.364H1135.53ZM1141.03 7.364C1141.73 7.364 1142.23 7.164 1142.63 6.764C1143.03 6.364 1143.23 5.864 1143.23 5.264V5.164C1143.23 4.564 1143.03 4.064 1142.63 3.664C1142.23 3.264 1141.73 3.064 1141.03 3.064C1140.33 3.064 1139.83 3.264 1139.43 3.664C1139.03 4.064 1138.83 4.564 1138.83 5.164V5.264C1138.83 5.864 1139.03 6.364 1139.43 6.764C1139.83 7.164 1140.33 7.364 1141.03 7.364ZM1144.73 24.364V22.664H1142.93V9.364L1137.43 10.464V11.864L1139.23 12.264V22.664H1137.43V24.364H1144.73ZM1153.83 24.364V22.664H1152.13V14.264C1152.13 13.864 1152.23 13.464 1152.43 13.164C1152.63 12.864 1152.83 12.664 1153.13 12.464C1153.43 12.264 1153.73 12.164 1154.03 12.064C1154.33 11.964 1154.73 11.964 1155.03 11.964C1155.93 11.964 1156.63 12.164 1157.03 12.664C1157.43 13.164 1157.63 13.964 1157.63 15.064V22.664H1155.93V24.364H1163.13V22.664H1161.33V14.864C1161.33 13.064 1160.93 11.664 1160.23 10.764C1159.53 9.864 1158.23 9.364 1156.43 9.364C1155.83 9.364 1155.33 9.464 1154.93 9.564C1154.53 9.664 1154.13 9.964 1153.73 10.164C1153.33 10.364 1153.13 10.664 1152.83 11.064C1152.63 11.364 1152.43 11.764 1152.33 12.064H1152.23V9.364L1146.83 10.464V11.864L1148.63 12.264V22.664H1146.83V24.364H1153.83ZM1171.43 30.264C1174.03 30.264 1175.93 29.864 1177.23 28.964C1178.53 28.064 1179.13 26.964 1179.13 25.364C1179.13 24.164 1178.73 23.164 1177.83 22.464C1177.03 21.764 1175.63 21.364 1173.73 21.364H1170.43C1169.73 21.364 1169.23 21.264 1168.93 21.064C1168.63 20.864 1168.43 20.564 1168.43 20.164C1168.43 19.864 1168.53 19.564 1168.73 19.364C1168.93 19.064 1169.23 18.864 1169.53 18.764C1170.23 18.864 1170.83 18.964 1171.53 18.964C1172.43 18.964 1173.23 18.864 1174.03 18.664C1174.73 18.464 1175.43 18.164 1175.93 17.764C1176.43 17.364 1176.83 16.864 1177.13 16.264C1177.43 15.664 1177.53 14.964 1177.53 14.164C1177.53 13.364 1177.43 12.764 1177.13 12.264C1176.83 11.764 1176.53 11.264 1176.03 10.964V9.964H1176.13C1176.33 10.164 1176.53 10.364 1176.73 10.464C1177.03 10.564 1177.23 10.664 1177.53 10.664C1178.03 10.664 1178.53 10.464 1178.83 10.164C1179.13 9.864 1179.33 9.464 1179.33 8.964C1179.33 8.464 1179.13 7.964 1178.83 7.764C1178.53 7.464 1178.03 7.364 1177.53 7.364C1176.73 7.364 1176.13 7.564 1175.73 8.064C1175.33 8.564 1175.03 9.264 1174.93 10.364C1174.43 10.064 1173.83 9.864 1173.23 9.764C1172.63 9.664 1171.93 9.564 1171.23 9.564C1170.33 9.564 1169.53 9.664 1168.83 9.864C1168.13 10.064 1167.43 10.364 1166.93 10.764C1166.43 11.164 1166.03 11.664 1165.73 12.264C1165.43 12.864 1165.33 13.564 1165.33 14.264C1165.33 15.364 1165.63 16.264 1166.13 16.964C1166.63 17.664 1167.33 18.264 1168.33 18.564V18.664C1167.53 18.864 1166.93 19.164 1166.33 19.664C1165.83 20.164 1165.53 20.764 1165.53 21.564C1165.53 22.264 1165.73 22.864 1166.13 23.364C1166.53 23.864 1167.03 24.164 1167.63 24.264V24.364C1166.83 24.464 1166.03 24.864 1165.43 25.264C1164.83 25.764 1164.53 26.364 1164.53 27.064C1164.53 27.564 1164.63 28.064 1164.83 28.464C1165.03 28.864 1165.43 29.264 1165.93 29.464C1166.43 29.664 1167.13 29.964 1168.03 30.164C1169.13 30.164 1170.13 30.264 1171.43 30.264ZM1171.53 17.364C1169.93 17.364 1169.13 16.464 1169.13 14.664V13.864C1169.13 12.064 1169.93 11.164 1171.53 11.164C1173.13 11.164 1173.93 12.064 1173.93 13.864V14.664C1173.93 16.464 1173.13 17.364 1171.53 17.364ZM1172.53 28.564H1170.83C1168.73 28.564 1167.63 27.964 1167.63 26.664C1167.63 26.264 1167.73 25.864 1167.93 25.564C1168.13 25.264 1168.43 24.964 1168.73 24.764H1173.33C1174.23 24.764 1174.93 24.864 1175.33 25.164C1175.73 25.464 1176.03 25.864 1176.03 26.564C1176.03 27.264 1175.73 27.764 1175.13 28.164C1174.53 28.464 1173.73 28.564 1172.53 28.564Z" fill="#17202D"/>
<path d="M614.8 409.8V279.8" stroke="#00AAA8" stroke-width="4" stroke-linecap="square"/>
<path fill-rule="evenodd" clip-rule="evenodd" d="M622.8 287.3H606.3L614.4 269.3L622.8 287.3Z" fill="#00AAA8"/>
<path d="M614.226 456.364C626.1 456.364 635.726 446.738 635.726 434.864C635.726 422.99 626.1 413.364 614.226 413.364C602.352 413.364 592.726 422.99 592.726 434.864C592.726 446.738 602.352 456.364 614.226 456.364Z" stroke="#00AAA8" stroke-width="4"/>
<path d="M609.526 427.364L606.726 430.064L608.126 431.364L611.626 434.864L608.126 438.264L606.726 439.664L609.526 442.364L610.826 440.964L614.226 437.564L617.726 440.964L619.026 442.364L621.726 439.664L620.426 438.264L616.926 434.864L620.426 431.364L621.726 430.064L619.026 427.364L617.726 428.664L614.226 432.164L610.826 428.664L609.526 427.364Z" fill="#00AAA8"/>
<path d="M727.226 590.364C739.1 590.364 748.726 580.738 748.726 568.864C748.726 556.99 739.1 547.364 727.226 547.364C715.352 547.364 705.726 556.99 705.726 568.864C705.726 580.738 715.352 590.364 727.226 590.364Z" stroke="#00AAA8" stroke-width="4" stroke-linecap="square"/>
<path d="M735.826 561.364L734.526 562.764L724.926 572.864L722.026 569.964L720.626 568.564L717.726 571.364L719.226 572.764L723.526 577.064L725.026 578.564L726.426 577.064L737.426 565.464L738.726 564.064L735.826 561.364Z" fill="#00AAA8"/>
<path d="M525.3 694.9C523 695.1 522.8 695.3 522.8 697.7V708.8C522.8 711.2 523 711.4 525.3 711.6V712.7H516.3V711.6C518.6 711.3 518.8 711.2 518.8 708.8V703.3H511V708.8C511 711.2 511.3 711.4 513.4 711.6V712.7H504.5V711.6C506.6 711.4 507 711.2 507 708.8V697.7C507 695.3 506.7 695.1 504.5 694.9V693.8H513.4V694.9C511.2 695.1 511 695.3 511 697.7V701.8H518.8V697.7C518.8 695.3 518.5 695.1 516.3 694.9V693.8H525.3V694.9Z" fill="#00AAA8"/>
<path d="M537.9 709.8C536.1 712.4 533.8 713 532.6 713C528.7 713 526.5 710.1 526.5 706.7C526.5 704.7 527.5 702.7 528.7 701.5C530 700.2 531.6 699.5 533.2 699.5C536 699.5 538 701.8 538 704.2C538 704.7 538 705.2 537.6 705.3C537 705.4 533 705.6 530.1 705.8C530.2 708.9 531.9 710.4 534 710.4C535.1 710.4 536.3 710 537.3 709.1L537.9 709.8ZM532.6 700.6C531.4 700.6 530.5 702 530.3 704.3C531.5 704.3 532.6 704.2 533.8 704.2C534.2 704.2 534.4 704.1 534.4 703.6C534.4 702.1 533.8 700.6 532.6 700.6Z" fill="#00AAA8"/>
<path d="M549.3 713C548.5 713 547.9 712.7 547.5 712.4C547.1 712.1 546.9 711.6 546.7 711.3C545.6 712 544.2 713 543.6 713C541.1 713 539.7 711.1 539.7 709.3C539.7 707.8 540.4 707.1 541.9 706.5C543.6 705.9 545.9 705.2 546.6 704.6V703.3C546.6 701.8 546 701 544.8 701C544.3 701 543.9 701.2 543.6 701.6C543.3 702.1 543.1 702.6 542.9 703.5C542.7 704.3 542.2 704.5 541.7 704.5C540.9 704.5 540 703.8 540 703C540 702.5 540.3 702.1 541 701.6C542.3 700.7 544 699.9 545.6 699.5C546.8 699.5 547.7 699.8 548.6 700.3C549.8 701.2 550.2 702.4 550.2 703.9V708.9C550.2 710.3 550.7 710.6 551.1 710.6C551.4 710.6 551.7 710.5 552 710.4L552.3 711.4L549.3 713ZM546.6 705.7C546.1 706 545.6 706.3 545 706.6C544.1 707.1 543.6 707.6 543.6 708.6C543.6 710.2 544.7 710.8 545.4 710.8C545.8 710.8 546.2 710.8 546.7 710.3C546.6 708.9 546.6 707 546.6 705.7Z" fill="#00AAA8"/>
<path d="M553 712.6V711.6C554.7 711.3 554.7 711.2 554.7 709.4V696.2C554.7 694.7 554.5 694.5 553 694.2V693.3C555 693.1 557 692.7 558.4 692.3C558.4 693.6 558.4 694.9 558.4 696.2V709.4C558.4 711.3 558.5 711.4 560.1 711.6V712.6H553Z" fill="#00AAA8"/>
<path d="M567.6 712.7C567.1 712.9 566.6 713 566.4 713C564.2 713 562.8 712 562.8 709.3V701.2H560.9L560.7 700.9L561.5 699.8H562.7V697.4C563.7 696.7 565.1 695.8 566.1 695.1L566.5 695.3C566.5 696.1 566.4 697.6 566.4 699.8H569.3C569.6 700.1 569.4 701 569.1 701.3H566.4V708.4C566.4 710.7 567.3 710.9 567.9 710.9C568.4 710.9 568.8 710.8 569.3 710.6L569.6 711.6L567.6 712.7Z" fill="#00AAA8"/>
<path d="M579 712.6V711.6C580.3 711.4 580.4 711.2 580.4 709.6V704.5C580.4 702.3 579.5 701.5 578.3 701.5C577.6 701.5 576.8 701.7 576.2 702.3V709.6C576.2 711.2 576.3 711.4 577.7 711.6V712.6H570.8V711.6C572.2 711.4 572.5 711.3 572.5 709.5V696.1C572.5 694.8 572.3 694.4 570.7 694.2V693.3C572.8 693.1 574.8 692.7 576.2 692.3C576.2 693.4 576.2 694.5 576.2 695.6V701.3C577.2 700.3 578.6 699.4 580.1 699.4C582.6 699.4 584.1 701.1 584.1 704.2V709.5C584.1 711.3 584.3 711.4 585.7 711.6V712.6H579Z" fill="#00AAA8"/>
<path d="M612 707.6C611.6 709.1 610.8 711.3 610.4 712.3C609.6 712.5 607.3 713.1 605.1 713.1C597.3 713.1 594.1 708.1 594.1 703.5C594.1 697.5 598.7 693.4 605.6 693.4C608.1 693.4 610.4 694 611.1 694.1C611.2 695.5 611.4 697.6 611.7 698.9L610.5 699.1C609.9 696.8 609 695.8 607.5 695.2C606.8 694.9 605.8 694.8 605 694.8C600.8 694.8 598.7 698.3 598.7 702.9C598.7 708.2 601.4 711.8 605.4 711.8C607.8 711.8 609.5 710.5 611 707.3L612 707.6Z" fill="#00AAA8"/>
<path d="M621.1 699.4C625.2 699.4 627.8 702.5 627.8 706C627.8 710.7 624.4 713 621 713C616.6 713 614.1 709.7 614.1 706.3C614.1 701.8 617.8 699.4 621.1 699.4ZM620.7 700.6C619.5 700.6 618.2 701.9 618.2 705.5C618.2 709.1 619.4 711.9 621.2 711.9C622.3 711.9 623.5 711.1 623.5 706.9C623.6 702.8 622.5 700.6 620.7 700.6Z" fill="#00AAA8"/>
<path d="M644.7 711.9C644 712 641.3 712.4 639 713C639 712.4 639 711.9 639 711.3C638.5 711.6 637.8 712.1 637.2 712.4C636.5 712.8 636.1 712.9 635.7 712.9C633.2 712.9 629.7 710.8 629.7 706.5C629.7 702.5 633.2 699.4 637.7 699.4C637.9 699.4 638.4 699.4 638.9 699.5V696.2C638.9 694.7 638.8 694.5 637 694.3V693.3C638.9 693.1 641.3 692.7 642.7 692.3C642.7 693.4 642.7 694.4 642.7 695.7V709C642.7 710.6 642.9 710.7 644 710.9L644.6 711V711.9H644.7ZM639 702.2C638.7 701.4 637.9 700.7 636.8 700.7C635.9 700.7 634 701.3 634 705.5C634 709.3 636.1 710.7 637.4 710.7C637.9 710.7 638.4 710.6 639 710.2V702.2Z" fill="#00AAA8"/>
<path d="M657.5 709.8C655.7 712.4 653.4 713 652.2 713C648.3 713 646.1 710.1 646.1 706.7C646.1 704.7 647.1 702.7 648.3 701.5C649.6 700.2 651.2 699.5 652.8 699.5C655.6 699.5 657.6 701.8 657.6 704.2C657.6 704.7 657.6 705.2 657.2 705.3C656.6 705.4 652.6 705.6 649.7 705.8C649.8 708.9 651.5 710.4 653.6 710.4C654.7 710.4 655.9 710 656.9 709.1L657.5 709.8ZM652.2 700.6C651 700.6 650.1 702 649.9 704.3C651.1 704.3 652.2 704.2 653.4 704.2C653.8 704.2 654 704.1 654 703.6C654 702.1 653.4 700.6 652.2 700.6Z" fill="#00AAA8"/>
<path d="M667 712.6H659.3V711.6C660.8 711.4 661 711.3 661 709.5V703.1C661 701.6 660.9 701.5 659.5 701.2V700.3C661.3 700.1 662.9 699.7 664.7 699.2C664.7 700.2 664.7 701.4 664.7 702.3C666 700.3 667 699.2 668.2 699.2C669.3 699.2 670.1 699.9 670.1 700.9C670.1 702.3 669.1 703.1 668.6 703.4C668.2 703.6 667.9 703.4 667.7 703.3C667.2 702.9 666.8 702.4 666.3 702.4C665.9 702.4 665.1 702.8 664.6 703.9V709.4C664.6 711.1 664.8 711.2 666.8 711.5V712.6H667Z" fill="#00AAA8"/>
</g>
<defs>
<clipPath id="clip0_2018_115">
<rect width="1179.5" height="710.1" fill="white" transform="translate(0 3)"/>
</clipPath>
</defs>
</svg>
