<svg width="1197" height="672" viewBox="0 0 1197 672" fill="none" xmlns="http://www.w3.org/2000/svg">
<g clip-path="url(#clip0_2018_221)">
<g clip-path="url(#clip1_2018_221)">
<path d="M590.3 504.9C606 504.9 618.8 517.7 618.8 533.4V544.4C618.8 560.1 606 572.9 590.3 572.9C574.6 572.9 561.8 560.1 561.8 544.4V533.4C561.8 517.6 574.5 504.9 590.3 504.9Z" stroke="#293240" stroke-width="4"/>
<path d="M517.8 661.9H664.8V635.9C664.8 609.4 643.3 587.9 616.8 587.9H565.8C539.3 587.9 517.8 609.4 517.8 635.9V661.9Z" stroke="#293240" stroke-width="4"/>
<path d="M630.8 611.9H551.8V661.9H630.8V611.9Z" stroke="#293240" stroke-width="4"/>
<path d="M591.8 625.9C597.9 625.9 602.8 630.8 602.8 636.9C602.8 643 597.9 647.9 591.8 647.9C585.7 647.9 580.8 643 580.8 636.9C580.8 630.8 585.7 625.9 591.8 625.9Z" stroke="#293240" stroke-width="4"/>
<path d="M627.2 498.4L636.8 498.9" stroke="#293240" stroke-width="4" stroke-linecap="square"/>
<path d="M632.8 571.4H637.8" stroke="#293240" stroke-width="4" stroke-linecap="square"/>
<path d="M652.1 571.4H681.2" stroke="#293240" stroke-width="4" stroke-linecap="square"/>
<path d="M637.8 515.9H654.8" stroke="#293240" stroke-width="4" stroke-linecap="square"/>
<path d="M645.8 551.9H668.8" stroke="#293240" stroke-width="4" stroke-linecap="square"/>
<path d="M640.8 533.9H644.8" stroke="#293240" stroke-width="4" stroke-linecap="square"/>
<path d="M658.8 533.9H681.8" stroke="#293240" stroke-width="4" stroke-linecap="square"/>
<path d="M648.2 498.4L681.3 498.9" stroke="#293240" stroke-width="4" stroke-linecap="square"/>
<path d="M668.2 515.9H681.3" stroke="#293240" stroke-width="4" stroke-linecap="square"/>
<path fill-rule="evenodd" clip-rule="evenodd" d="M547.7 104.9H540.4C535.4 104.9 531.2 109 531.2 114.1V153.4C531.2 158.4 535.3 162.6 540.4 162.6H547.7V158.9H540.4C537.8 158.9 534.9 156 534.9 153.4V114.1C534.9 111.5 537.8 108.6 540.4 108.6H547.7V104.9Z" fill="#00AAA8"/>
<path fill-rule="evenodd" clip-rule="evenodd" d="M605.4 227.5H609V245.6L605.4 246.6V227.5Z" fill="#00AAA8"/>
<path fill-rule="evenodd" clip-rule="evenodd" d="M642.9 188.2H646.5V156.1H642.9V188.2Z" fill="#00AAA8"/>
<path fill-rule="evenodd" clip-rule="evenodd" d="M599.9 101.2V106.7C599.9 109.3 603.7 113.1 606.3 113.1H617.3V109.4H608.1C605.7 109.5 603.6 107.7 603.5 105.2V104.8V101.1H599.9V101.2Z" fill="#00AAA8"/>
<path fill-rule="evenodd" clip-rule="evenodd" d="M630.1 145.2V115.9C630.1 113.3 626.3 109.5 623.7 109.5H617.3V113.2H621.9C624.3 113.1 626.4 114.9 626.5 117.4V117.8V145.3H630.1V145.2Z" fill="#00AAA8"/>
<path fill-rule="evenodd" clip-rule="evenodd" d="M626.4 145.2V149.8C626.4 152.4 630.2 156.2 632.8 156.2H681.3L681.2 152.5H634.6C632.2 152.6 630.1 150.8 630 148.3V147.9V145.2H626.4Z" fill="#00AAA8"/>
<path fill-rule="evenodd" clip-rule="evenodd" d="M580.7 137.8V152.4C580.7 155 584.5 158.8 587.1 158.8H610V155.1H589C586.6 155.2 584.5 153.4 584.4 150.9V150.5V137.7H580.7V137.8Z" fill="#00AAA8"/>
<path fill-rule="evenodd" clip-rule="evenodd" d="M622.8 179.9V161.6C622.8 159 619 155.2 616.4 155.2H610V158.9H614.6C617 158.8 619.1 160.6 619.2 163.1V163.5V180H622.8V179.9Z" fill="#00AAA8"/>
<path fill-rule="evenodd" clip-rule="evenodd" d="M550.5 180.9H592.6C595.2 180.9 599 177.1 599 174.5V158.9H595.3V172.6C595.4 175 593.6 177.1 591.1 177.2H590.7H550.5V180.9Z" fill="#00AAA8"/>
<path fill-rule="evenodd" clip-rule="evenodd" d="M550.5 177.2H545.9C543.3 177.2 539.5 181 539.5 183.6V194.6H543.2V185.4C543.1 183 544.9 180.9 547.4 180.8H547.8H550.5V177.2Z" fill="#00AAA8"/>
<path fill-rule="evenodd" clip-rule="evenodd" d="M575.2 191.8H578.8V180.9H575.2V191.8Z" fill="#00AAA8"/>
<path d="M590.3 70.1C639.6 70.1 679.5 110 679.5 159.3C679.5 208.6 639.6 248.5 590.3 248.5C541 248.5 501.1 208.6 501.1 159.4C501.1 110.2 541 70.1 590.3 70.1Z" stroke="#00AAA8" stroke-width="5"/>
<path fill-rule="evenodd" clip-rule="evenodd" d="M506.5 137.7H531.7V134H506.5V137.7Z" fill="#00AAA8"/>
<path d="M553.8 99.9H558.8C561 99.9 562.8 101.7 562.8 103.9V108.9C562.8 111.1 561 112.9 558.8 112.9H553.8C551.6 112.9 549.8 111.1 549.8 108.9V103.9C549.8 101.6 551.6 99.9 553.8 99.9Z" stroke="#00AAA8" stroke-width="4"/>
<path d="M598.8 87.9H603.8C606 87.9 607.8 89.7 607.8 91.9V96.9C607.8 99.1 606 100.9 603.8 100.9H598.8C596.6 100.9 594.8 99.1 594.8 96.9V91.9C594.8 89.6 596.6 87.9 598.8 87.9Z" stroke="#00AAA8" stroke-width="4"/>
<path d="M618.8 179.9H623.8C626 179.9 627.8 181.7 627.8 183.9V188.9C627.8 191.1 626 192.9 623.8 192.9H618.8C616.6 192.9 614.8 191.1 614.8 188.9V183.9C614.8 181.6 616.6 179.9 618.8 179.9Z" stroke="#00AAA8" stroke-width="4"/>
<path d="M641.8 188.9H646.8C649 188.9 650.8 190.7 650.8 192.9V197.9C650.8 200.1 649 201.9 646.8 201.9H641.8C639.6 201.9 637.8 200.1 637.8 197.9V192.9C637.8 190.6 639.6 188.9 641.8 188.9Z" stroke="#00AAA8" stroke-width="4"/>
<path d="M538.8 195.9H543.8C546 195.9 547.8 197.7 547.8 199.9V204.9C547.8 207.1 546 208.9 543.8 208.9H538.8C536.6 208.9 534.8 207.1 534.8 204.9V199.9C534.8 197.6 536.6 195.9 538.8 195.9Z" stroke="#00AAA8" stroke-width="4"/>
<path d="M574.8 192.9H579.8C582 192.9 583.8 194.7 583.8 196.9V201.9C583.8 204.1 582 205.9 579.8 205.9H574.8C572.6 205.9 570.8 204.1 570.8 201.9V196.9C570.8 194.6 572.6 192.9 574.8 192.9Z" stroke="#00AAA8" stroke-width="4"/>
<path d="M604.8 212.9H609.8C612 212.9 613.8 214.7 613.8 216.9V221.9C613.8 224.1 612 225.9 609.8 225.9H604.8C602.6 225.9 600.8 224.1 600.8 221.9V216.9C600.8 214.6 602.6 212.9 604.8 212.9Z" stroke="#00AAA8" stroke-width="4"/>
<path d="M553.8 153.9H558.8C561 153.9 562.8 155.7 562.8 157.9V162.9C562.8 165.1 561 166.9 558.8 166.9H553.8C551.6 166.9 549.8 165.1 549.8 162.9V157.9C549.8 155.6 551.6 153.9 553.8 153.9Z" stroke="#00AAA8" stroke-width="4"/>
<path d="M579.8 123.9H584.8C587 123.9 588.8 125.7 588.8 127.9V132.9C588.8 135.1 587 136.9 584.8 136.9H579.8C577.6 136.9 575.8 135.1 575.8 132.9V127.9C575.8 125.6 577.6 123.9 579.8 123.9Z" stroke="#00AAA8" stroke-width="4"/>
<path d="M153.8 82.8999H33.8V235.9H153.8V82.8999Z" stroke="#293240" stroke-width="4"/>
<path d="M58.8 82.8999V90.8999C58.8 95.2999 62.4 98.8999 66.8 98.8999H119.8C124.2 98.8999 127.8 95.2999 127.8 90.8999V82.8999H58.8Z" stroke="#293240" stroke-width="4"/>
<path d="M53.1 122.9H133.4" stroke="#293240" stroke-width="4" stroke-linecap="square"/>
<path d="M53.1 156.9H133.4" stroke="#293240" stroke-width="4" stroke-linecap="square"/>
<path d="M53.1 206.9H133.4" stroke="#293240" stroke-width="4" stroke-linecap="square"/>
<path d="M53.1 139.4H133.4" stroke="#293240" stroke-width="4" stroke-linecap="square"/>
<path d="M53.1 190.4H133.4" stroke="#293240" stroke-width="4" stroke-linecap="square"/>
<path d="M53.1 174.4H133.4" stroke="#293240" stroke-width="4" stroke-linecap="square"/>
<path d="M1163.8 147.9H1033.8V200.9H1163.8V147.9Z" stroke="#293240" stroke-width="4"/>
<path d="M1163.8 148.9H1135.8V214.9H1163.8V148.9Z" stroke="#293240" stroke-width="4"/>
<path d="M1180.8 87.8999H1018.8V231.9H1180.8V87.8999Z" stroke="#293240" stroke-width="4"/>
<path d="M1033.1 121.4H1083.3" stroke="#293240" stroke-width="4" stroke-linecap="square"/>
<path d="M1033.1 134.4H1083.3" stroke="#293240" stroke-width="4" stroke-linecap="square"/>
<path d="M1034.1 160.4H1161.3" stroke="#293240" stroke-width="4" stroke-linecap="square"/>
<path d="M1021.1 107.4H1179.3" stroke="#293240" stroke-width="4" stroke-linecap="square"/>
<path d="M1030.8 99.8999C1031.9 99.8999 1032.8 99.0045 1032.8 97.8999C1032.8 96.7953 1031.9 95.8999 1030.8 95.8999C1029.7 95.8999 1028.8 96.7953 1028.8 97.8999C1028.8 99.0045 1029.7 99.8999 1030.8 99.8999Z" fill="#9A76CF" stroke="#293240" stroke-width="4"/>
<path d="M1043.8 99.8999C1044.9 99.8999 1045.8 99.0045 1045.8 97.8999C1045.8 96.7953 1044.9 95.8999 1043.8 95.8999C1042.7 95.8999 1041.8 96.7953 1041.8 97.8999C1041.8 99.0045 1042.7 99.8999 1043.8 99.8999Z" fill="#9A76CF" stroke="#293240" stroke-width="4"/>
<path d="M203.8 166.9C207.114 166.9 209.8 164.214 209.8 160.9C209.8 157.586 207.114 154.9 203.8 154.9C200.486 154.9 197.8 157.586 197.8 160.9C197.8 164.214 200.486 166.9 203.8 166.9Z" stroke="#293240" stroke-width="4"/>
<path d="M212.8 160.9H433.8" stroke="#293240" stroke-width="4" stroke-linecap="square"/>
<path fill-rule="evenodd" clip-rule="evenodd" d="M432 152.6V169.1L450 160.9L432 152.6Z" fill="#293240"/>
<path d="M757.8 159.9H959.8" stroke="#00AAA8" stroke-width="4" stroke-linecap="square"/>
<path fill-rule="evenodd" clip-rule="evenodd" d="M958 151.6V168.1L976 159.9L958 151.6Z" fill="#00AAA8"/>
<path d="M735.226 181.864C747.1 181.864 756.726 172.238 756.726 160.364C756.726 148.49 747.1 138.864 735.226 138.864C723.352 138.864 713.726 148.49 713.726 160.364C713.726 172.238 723.352 181.864 735.226 181.864Z" stroke="#00AAA8" stroke-width="4"/>
<path d="M757.8 580.9H1099.8" stroke="#293240" stroke-width="4" stroke-linecap="square"/>
<path d="M590.3 315.9C602.174 315.9 611.8 306.274 611.8 294.4C611.8 282.526 602.174 272.9 590.3 272.9C578.426 272.9 568.8 282.526 568.8 294.4C568.8 306.274 578.426 315.9 590.3 315.9Z" stroke="#00AAA8" stroke-width="4"/>
<path d="M589.8 319.4V449.4" stroke="#00AAA8" stroke-width="4" stroke-linecap="square"/>
<path fill-rule="evenodd" clip-rule="evenodd" d="M581.8 441.9H598.3L590.1 459.9L581.8 441.9Z" fill="#00AAA8"/>
<path fill-rule="evenodd" clip-rule="evenodd" d="M1108.23 294.864H1091.73L1099.93 276.864L1108.23 294.864Z" fill="#293240"/>
<path d="M1100.73 580.864L1100.53 295.564" stroke="#293240" stroke-width="4" stroke-linecap="square"/>
<path d="M743.826 152.864L742.526 154.264L732.926 164.364L730.026 161.464L728.626 160.064L725.726 162.864L727.226 164.264L731.526 168.564L733.026 170.064L734.426 168.564L745.426 156.964L746.726 155.564L743.826 152.864Z" fill="#00AAA8"/>
<path d="M735.226 601.864C747.1 601.864 756.726 592.238 756.726 580.364C756.726 568.49 747.1 558.864 735.226 558.864C723.352 558.864 713.726 568.49 713.726 580.364C713.726 592.238 723.352 601.864 735.226 601.864Z" stroke="#17202D" stroke-width="4"/>
<path d="M743.826 572.864L742.526 574.264L732.926 584.364L730.026 581.464L728.626 580.064L725.726 582.864L727.226 584.264L731.526 588.564L733.026 590.064L734.426 588.564L745.426 576.964L746.726 575.564L743.826 572.864Z" fill="#17202D"/>
<path d="M585.526 286.864L582.726 289.564L584.126 290.864L587.626 294.364L584.126 297.764L582.726 299.164L585.526 301.864L586.826 300.464L590.226 297.064L593.726 300.464L595.026 301.864L597.726 299.164L596.426 297.764L592.926 294.364L596.426 290.864L597.726 289.564L595.026 286.864L593.726 288.264L590.226 291.664L586.826 288.264L585.526 286.864Z" fill="#00AAA8"/>
<path d="M16.526 36.164C17.526 36.164 18.326 36.064 19.126 35.764C19.926 35.464 20.626 35.064 21.226 34.664C21.826 34.164 22.326 33.664 22.726 33.064C23.126 32.464 23.426 31.864 23.726 31.164L22.326 30.364C21.926 31.464 21.226 32.264 20.426 32.964C19.626 33.564 18.526 33.964 17.326 33.964C15.826 33.964 14.626 33.464 13.726 32.564C12.826 31.664 12.326 30.264 12.326 28.464V23.464C12.326 21.764 12.726 20.364 13.426 19.464C14.226 18.464 15.326 18.064 16.726 18.064C17.926 18.064 18.926 18.364 19.626 18.964C20.326 19.564 20.626 20.264 20.626 21.264V22.564H23.526V16.464H20.626V18.164H20.526C20.226 17.664 19.826 17.264 19.126 16.764C18.426 16.364 17.526 16.164 16.226 16.164C15.126 16.164 14.026 16.364 13.026 16.864C12.026 17.364 11.126 17.964 10.426 18.764C9.72599 19.664 9.12599 20.664 8.62599 21.964C8.12599 23.264 7.92599 24.664 7.92599 26.364C7.92599 27.864 8.12599 29.164 8.52599 30.364C8.92599 31.564 9.42599 32.664 10.226 33.564C10.926 34.464 11.826 35.164 12.926 35.664C14.026 36.164 15.226 36.164 16.526 36.164ZM33.126 35.864V34.164H31.326V14.564L25.826 15.664V17.064L27.626 17.464V34.164H25.826V35.864H33.126ZM38.726 18.864C39.426 18.864 39.926 18.664 40.326 18.264C40.726 17.864 40.926 17.364 40.926 16.764V16.664C40.926 16.064 40.726 15.564 40.326 15.164C39.926 14.764 39.426 14.564 38.726 14.564C38.026 14.564 37.526 14.764 37.126 15.164C36.726 15.564 36.526 16.064 36.526 16.664V16.764C36.526 17.364 36.726 17.864 37.126 18.264C37.526 18.764 38.026 18.864 38.726 18.864ZM42.326 35.864V34.164H40.526V20.864L35.026 21.964V23.364L36.826 23.764V34.164H35.026V35.864H42.326ZM51.326 36.164C52.226 36.164 53.026 36.064 53.626 35.764C54.326 35.564 54.926 35.164 55.426 34.764C55.926 34.364 56.326 33.964 56.626 33.464C56.926 32.964 57.226 32.564 57.326 32.064L55.926 31.264C55.626 31.964 55.126 32.564 54.526 32.964C53.926 33.464 53.026 33.664 52.026 33.664C50.926 33.664 49.926 33.264 49.226 32.564C48.526 31.864 48.226 30.764 48.226 29.464V28.464H57.626V27.664C57.626 26.664 57.426 25.664 57.126 24.864C56.826 24.064 56.426 23.364 55.826 22.764C55.226 22.164 54.526 21.664 53.726 21.364C52.926 21.064 52.026 20.864 51.026 20.864C50.026 20.864 49.126 21.064 48.226 21.364C47.326 21.664 46.726 22.264 46.126 22.864C45.526 23.564 45.026 24.364 44.726 25.264C44.426 26.164 44.226 27.264 44.226 28.364C44.226 29.464 44.426 30.564 44.726 31.464C45.026 32.364 45.526 33.264 46.126 33.864C46.726 34.564 47.426 35.064 48.326 35.464C49.226 35.864 50.126 36.164 51.326 36.164ZM53.826 26.964H48.226V26.564C48.226 25.264 48.426 24.264 48.926 23.564C49.426 22.864 50.126 22.664 51.026 22.664C51.926 22.664 52.626 22.964 53.126 23.664C53.626 24.264 53.826 25.264 53.826 26.664V26.964ZM67.026 35.864V34.164H65.326V25.764C65.326 25.364 65.426 24.964 65.626 24.664C65.826 24.364 66.026 24.164 66.326 23.964C66.626 23.764 66.926 23.664 67.226 23.564C67.526 23.464 67.926 23.464 68.226 23.464C69.126 23.464 69.826 23.664 70.226 24.164C70.626 24.664 70.826 25.464 70.826 26.564V34.264H69.126V35.964H76.226V34.264H74.426V26.464C74.426 24.664 74.026 23.264 73.326 22.364C72.626 21.464 71.326 20.964 69.526 20.964C68.926 20.964 68.426 21.064 68.026 21.164C67.626 21.264 67.226 21.464 66.826 21.764C66.426 22.064 66.226 22.264 65.926 22.664C65.726 22.964 65.526 23.364 65.426 23.664H65.226V20.964L59.826 22.064V23.464L61.626 23.864V34.264H59.826V35.964H67.026V35.864ZM82.826 36.064C83.726 36.064 84.526 35.964 85.226 35.864C85.926 35.764 86.426 35.664 86.726 35.464V34.064H83.326V22.964H86.726V21.164H83.326V17.264H81.526L80.526 19.664C80.326 20.164 80.126 20.564 79.826 20.764C79.526 20.964 79.126 21.164 78.426 21.164H77.826V22.964H79.726V33.164C79.726 34.164 79.926 34.864 80.426 35.364C80.926 35.864 81.726 36.064 82.826 36.064ZM101.926 36.164C102.726 36.164 103.526 36.064 104.126 35.764C104.726 35.464 105.326 35.164 105.826 34.764C106.326 34.364 106.726 33.964 107.026 33.464C107.326 32.964 107.526 32.464 107.726 32.064L106.426 31.264C106.126 31.964 105.626 32.564 105.026 33.064C104.426 33.564 103.526 33.764 102.526 33.764C101.426 33.764 100.526 33.364 99.926 32.664C99.326 31.964 98.926 30.864 98.926 29.564V26.864C98.926 25.564 99.226 24.464 99.926 23.664C100.626 22.864 101.526 22.464 102.726 22.464C103.226 22.464 103.626 22.464 103.926 22.564C104.226 22.664 104.426 22.664 104.626 22.764V22.864C104.326 22.964 104.026 23.264 103.726 23.564C103.526 23.864 103.426 24.264 103.426 24.664C103.426 25.264 103.626 25.664 103.926 26.064C104.226 26.464 104.726 26.564 105.426 26.564C106.126 26.564 106.626 26.364 106.926 25.964C107.326 25.564 107.426 25.064 107.426 24.364C107.426 23.264 106.926 22.464 106.026 21.764C105.126 21.064 103.826 20.764 102.126 20.764C101.126 20.764 100.126 20.964 99.226 21.264C98.326 21.564 97.526 22.064 96.926 22.764C96.226 23.364 95.726 24.164 95.426 25.164C95.126 26.164 94.826 27.164 94.826 28.364C94.826 29.464 95.026 30.464 95.326 31.464C95.626 32.364 96.126 33.264 96.626 33.864C97.226 34.564 97.926 35.064 98.826 35.464C99.826 35.964 100.826 36.164 101.926 36.164ZM116.626 35.864V34.164H114.926V25.764C114.926 25.364 115.026 24.964 115.226 24.664C115.426 24.364 115.626 24.164 115.926 23.964C116.226 23.764 116.526 23.664 116.826 23.564C117.126 23.464 117.526 23.464 117.826 23.464C118.726 23.464 119.426 23.664 119.826 24.164C120.226 24.664 120.426 25.464 120.426 26.564V34.264H118.726V35.964H125.926V34.264H124.126V26.464C124.126 24.664 123.726 23.264 123.026 22.364C122.326 21.464 121.026 20.964 119.226 20.964C118.626 20.964 118.126 21.064 117.726 21.164C117.326 21.264 116.926 21.464 116.526 21.764C116.126 22.064 115.926 22.264 115.626 22.664C115.426 22.964 115.226 23.364 115.126 23.664H115.026V14.664L109.526 15.764V17.164L111.326 17.564V34.264H109.526V35.964H116.626V35.864ZM138.926 36.164C139.426 36.164 139.926 36.064 140.326 35.964C140.826 35.864 141.126 35.764 141.426 35.564V34.164H139.626V25.664C139.626 24.164 139.126 22.964 138.226 22.064C137.326 21.264 135.926 20.764 134.026 20.764C133.026 20.764 132.226 20.864 131.426 21.064C130.726 21.264 130.026 21.564 129.526 21.864C129.026 22.164 128.626 22.564 128.426 22.964C128.226 23.364 128.026 23.864 128.026 24.264C128.026 24.864 128.226 25.264 128.526 25.664C128.826 26.064 129.326 26.164 129.826 26.164C130.426 26.164 130.926 25.964 131.226 25.664C131.526 25.364 131.726 24.864 131.726 24.364C131.726 23.964 131.626 23.664 131.426 23.364C131.226 23.164 131.026 22.964 130.926 22.864V22.764C131.326 22.564 132.026 22.364 132.826 22.364C133.926 22.364 134.626 22.664 135.126 23.264C135.626 23.864 135.826 24.764 135.826 25.864V27.664H133.826C131.626 27.664 130.026 28.064 128.926 28.764C127.926 29.464 127.326 30.564 127.326 31.964C127.326 33.264 127.726 34.264 128.426 34.964C129.126 35.664 130.226 36.064 131.826 36.064C132.426 36.064 133.026 35.964 133.426 35.864C133.926 35.764 134.226 35.564 134.626 35.264C134.926 35.064 135.226 34.764 135.426 34.464C135.626 34.164 135.826 33.864 135.926 33.564H136.026V33.664C136.026 34.364 136.226 34.964 136.626 35.464C137.326 35.964 138.026 36.164 138.926 36.164ZM133.526 33.964C132.826 33.964 132.326 33.864 131.926 33.564C131.526 33.264 131.326 32.764 131.326 32.164V31.664C131.326 30.964 131.526 30.364 132.026 29.964C132.526 29.564 133.326 29.364 134.426 29.364H136.026V31.764C136.026 32.564 135.826 33.164 135.326 33.564C134.826 33.764 134.226 33.964 133.526 33.964ZM151.226 35.864V34.164H148.826V25.664C148.826 25.364 148.926 24.964 149.026 24.664C149.226 24.364 149.426 24.064 149.626 23.764C149.926 23.464 150.126 23.264 150.526 23.064C150.826 22.864 151.126 22.764 151.526 22.764C151.726 22.764 151.826 22.764 151.926 22.764V22.864C151.826 22.964 151.626 23.064 151.526 23.264C151.426 23.464 151.326 23.664 151.326 23.964C151.326 24.464 151.526 24.864 151.826 25.164C152.126 25.464 152.626 25.664 153.326 25.664C153.926 25.664 154.426 25.464 154.826 25.064C155.226 24.664 155.326 24.164 155.326 23.364C155.326 22.564 155.026 21.864 154.526 21.464C154.026 20.964 153.326 20.764 152.426 20.764C151.926 20.764 151.526 20.864 151.126 20.964C150.726 21.064 150.426 21.264 150.126 21.564C149.826 21.864 149.626 22.064 149.426 22.464C149.226 22.764 149.026 23.164 148.926 23.464H148.826V20.764L143.426 21.864V23.264L145.226 23.664V34.064H143.426V35.764H151.226V35.864ZM161.426 36.064C162.326 36.064 163.126 35.964 163.826 35.864C164.526 35.764 165.026 35.664 165.326 35.464V34.064H161.926V22.964H165.326V21.164H161.926V17.264H160.226L159.226 19.664C159.026 20.164 158.826 20.564 158.526 20.764C158.226 20.964 157.826 21.164 157.126 21.164H156.526V22.964H158.426V33.164C158.426 34.164 158.626 34.864 159.126 35.364C159.626 35.864 160.326 36.064 161.426 36.064ZM173.226 36.164C174.926 36.164 176.226 35.764 177.226 34.964C178.226 34.164 178.726 33.064 178.726 31.564C178.726 30.164 178.326 29.164 177.526 28.464C176.726 27.764 175.626 27.264 174.026 26.864L172.726 26.564C171.926 26.364 171.426 26.164 171.026 25.764C170.726 25.464 170.526 24.964 170.526 24.464C170.526 23.264 171.326 22.664 172.926 22.664C173.926 22.664 174.626 22.864 175.126 23.264C175.626 23.664 175.826 24.164 175.826 24.864V25.564H178.226V21.164H175.826V22.564H175.726C175.626 22.064 175.226 21.664 174.626 21.364C174.026 21.064 173.326 20.864 172.326 20.864C170.726 20.864 169.526 21.264 168.526 22.064C167.526 22.864 167.126 23.964 167.126 25.364C167.126 26.664 167.526 27.664 168.226 28.364C169.026 29.064 170.126 29.664 171.726 30.064L173.126 30.464C173.826 30.664 174.326 30.864 174.726 31.164C175.126 31.464 175.226 31.864 175.226 32.364C175.226 33.664 174.326 34.264 172.426 34.264C171.426 34.264 170.626 34.064 170.126 33.664C169.626 33.264 169.426 32.664 169.426 31.964V31.464H167.226V35.864H169.626V34.364H169.726C169.826 34.864 170.226 35.264 170.826 35.664C171.426 35.964 172.226 36.164 173.226 36.164Z" fill="#17202D"/>
<path d="M1022.73 36.164C1023.73 36.164 1024.53 36.064 1025.33 35.764C1026.13 35.464 1026.83 35.064 1027.43 34.664C1028.03 34.164 1028.53 33.664 1028.93 33.064C1029.33 32.464 1029.63 31.864 1029.93 31.164L1028.53 30.364C1028.13 31.464 1027.43 32.264 1026.63 32.964C1025.83 33.564 1024.73 33.964 1023.53 33.964C1022.03 33.964 1020.83 33.464 1019.93 32.564C1019.03 31.664 1018.53 30.264 1018.53 28.464V23.464C1018.53 21.764 1018.93 20.364 1019.63 19.464C1020.43 18.464 1021.53 18.064 1022.93 18.064C1024.13 18.064 1025.13 18.364 1025.83 18.964C1026.53 19.564 1026.83 20.264 1026.83 21.264V22.564H1029.73V16.464H1026.83V18.164H1026.73C1026.43 17.664 1026.03 17.264 1025.33 16.764C1024.63 16.364 1023.73 16.164 1022.43 16.164C1021.33 16.164 1020.23 16.364 1019.23 16.864C1018.23 17.364 1017.33 17.964 1016.63 18.764C1015.93 19.664 1015.33 20.664 1014.83 21.964C1014.43 23.264 1014.13 24.664 1014.13 26.364C1014.13 27.864 1014.33 29.164 1014.73 30.364C1015.13 31.564 1015.63 32.664 1016.43 33.564C1017.13 34.464 1018.03 35.164 1019.13 35.664C1020.23 35.964 1021.43 36.164 1022.73 36.164ZM1039.33 35.864V34.164H1037.53V14.564L1032.03 15.664V17.064L1033.83 17.464V34.164H1032.03V35.864H1039.33ZM1044.93 18.864C1045.63 18.864 1046.13 18.664 1046.53 18.264C1046.93 17.864 1047.13 17.364 1047.13 16.764V16.664C1047.13 16.064 1046.93 15.564 1046.53 15.164C1046.13 14.764 1045.63 14.564 1044.93 14.564C1044.23 14.564 1043.73 14.764 1043.33 15.164C1042.93 15.564 1042.73 16.064 1042.73 16.664V16.764C1042.73 17.364 1042.93 17.864 1043.33 18.264C1043.73 18.664 1044.23 18.864 1044.93 18.864ZM1048.53 35.864V34.164H1046.73V20.864L1041.23 21.964V23.364L1043.03 23.764V34.164H1041.23V35.864H1048.53ZM1057.53 36.164C1058.43 36.164 1059.23 36.064 1059.83 35.764C1060.53 35.564 1061.13 35.164 1061.63 34.764C1062.13 34.364 1062.53 33.964 1062.83 33.464C1063.13 32.964 1063.43 32.564 1063.53 32.064L1062.13 31.264C1061.83 31.964 1061.33 32.564 1060.73 32.964C1060.13 33.464 1059.23 33.664 1058.23 33.664C1057.13 33.664 1056.13 33.264 1055.43 32.564C1054.73 31.864 1054.43 30.764 1054.43 29.464V28.464H1063.83V27.664C1063.83 26.664 1063.63 25.664 1063.33 24.864C1063.03 24.064 1062.63 23.364 1062.03 22.764C1061.43 22.164 1060.73 21.664 1059.93 21.364C1059.13 21.064 1058.23 20.864 1057.23 20.864C1056.23 20.864 1055.33 21.064 1054.43 21.364C1053.53 21.664 1052.93 22.264 1052.33 22.864C1051.73 23.564 1051.23 24.364 1050.93 25.264C1050.63 26.164 1050.43 27.264 1050.43 28.364C1050.43 29.464 1050.63 30.564 1050.93 31.464C1051.23 32.364 1051.73 33.264 1052.33 33.864C1052.93 34.564 1053.63 35.064 1054.53 35.464C1055.43 35.964 1056.43 36.164 1057.53 36.164ZM1060.03 26.964H1054.43V26.564C1054.43 25.264 1054.63 24.264 1055.13 23.564C1055.63 22.964 1056.33 22.664 1057.23 22.664C1058.13 22.664 1058.83 22.964 1059.33 23.664C1059.83 24.264 1060.03 25.264 1060.03 26.664V26.964ZM1073.23 35.864V34.164H1071.53V25.764C1071.53 25.364 1071.63 24.964 1071.83 24.664C1072.03 24.364 1072.23 24.164 1072.53 23.964C1072.83 23.764 1073.13 23.664 1073.43 23.564C1073.73 23.464 1074.13 23.464 1074.43 23.464C1075.33 23.464 1076.03 23.664 1076.43 24.164C1076.83 24.664 1077.03 25.464 1077.03 26.564V34.264H1075.33V35.964H1082.53V34.264H1080.73V26.464C1080.73 24.664 1080.33 23.264 1079.63 22.364C1078.93 21.464 1077.63 20.964 1075.83 20.964C1075.23 20.964 1074.73 21.064 1074.33 21.164C1073.93 21.264 1073.53 21.464 1073.13 21.764C1072.73 22.064 1072.53 22.264 1072.23 22.664C1072.03 22.964 1071.83 23.364 1071.73 23.664H1071.63V20.964L1066.23 22.064V23.464L1068.03 23.864V34.264H1066.23V35.964H1073.23V35.864ZM1089.03 36.064C1089.93 36.064 1090.73 35.964 1091.43 35.864C1092.13 35.764 1092.63 35.664 1092.93 35.464V34.064H1089.53V22.964H1092.93V21.164H1089.53V17.264H1087.73L1086.73 19.664C1086.53 20.164 1086.33 20.564 1086.03 20.764C1085.73 20.964 1085.33 21.164 1084.63 21.164H1084.03V22.964H1085.93V33.164C1085.93 34.164 1086.13 34.864 1086.63 35.364C1087.13 35.864 1087.93 36.064 1089.03 36.064ZM1110.23 36.164C1111.13 36.164 1111.93 35.964 1112.63 35.664C1113.33 35.264 1113.93 34.764 1114.43 34.164C1114.93 33.464 1115.33 32.664 1115.63 31.764C1115.93 30.864 1116.03 29.764 1116.03 28.564C1116.03 27.364 1115.93 26.364 1115.63 25.364C1115.33 24.464 1114.93 23.664 1114.43 22.964C1113.93 22.264 1113.33 21.764 1112.63 21.464C1111.93 21.064 1111.13 20.964 1110.23 20.964C1109.13 20.964 1108.33 21.264 1107.63 21.764C1106.93 22.264 1106.53 22.864 1106.23 23.464H1106.13V14.664L1100.63 15.764V17.164L1102.43 17.564V35.964H1104.13L1105.93 33.764H1106.03C1106.33 34.464 1106.83 35.064 1107.53 35.564C1108.13 35.964 1109.13 36.164 1110.23 36.164ZM1109.03 33.864C1108.23 33.864 1107.53 33.664 1107.03 33.164C1106.43 32.664 1106.13 32.064 1106.13 31.264V25.864C1106.13 25.064 1106.43 24.364 1107.03 23.964C1107.63 23.464 1108.33 23.264 1109.03 23.264C1109.93 23.264 1110.73 23.564 1111.33 24.264C1111.93 24.864 1112.23 25.764 1112.23 26.964V30.364C1112.23 31.564 1111.93 32.464 1111.33 33.064C1110.73 33.564 1109.93 33.864 1109.03 33.864ZM1122.03 18.864C1122.73 18.864 1123.23 18.664 1123.63 18.264C1124.03 17.864 1124.23 17.364 1124.23 16.764V16.664C1124.23 16.064 1124.03 15.564 1123.63 15.164C1123.23 14.764 1122.73 14.564 1122.03 14.564C1121.33 14.564 1120.83 14.764 1120.43 15.164C1120.03 15.564 1119.83 16.064 1119.83 16.664V16.764C1119.83 17.364 1120.03 17.864 1120.43 18.264C1120.83 18.664 1121.33 18.864 1122.03 18.864ZM1125.73 35.864V34.164H1123.93V20.864L1118.43 21.964V23.364L1120.23 23.764V34.164H1118.43V35.864H1125.73ZM1134.63 35.864V34.164H1132.83V14.564L1127.33 15.664V17.064L1129.13 17.464V34.164H1127.33V35.864H1134.63ZM1143.53 35.864V34.164H1141.73V14.564L1136.23 15.664V17.064L1138.03 17.464V34.164H1136.23V35.864H1143.53ZM1149.03 18.864C1149.73 18.864 1150.23 18.664 1150.63 18.264C1151.03 17.864 1151.23 17.364 1151.23 16.764V16.664C1151.23 16.064 1151.03 15.564 1150.63 15.164C1150.23 14.764 1149.73 14.564 1149.03 14.564C1148.33 14.564 1147.83 14.764 1147.43 15.164C1147.03 15.564 1146.83 16.064 1146.83 16.664V16.764C1146.83 17.364 1147.03 17.864 1147.43 18.264C1147.83 18.664 1148.33 18.864 1149.03 18.864ZM1152.73 35.864V34.164H1150.93V20.864L1145.43 21.964V23.364L1147.23 23.764V34.164H1145.43V35.864H1152.73ZM1161.83 35.864V34.164H1160.13V25.764C1160.13 25.364 1160.23 24.964 1160.43 24.664C1160.63 24.364 1160.83 24.164 1161.13 23.964C1161.43 23.764 1161.73 23.664 1162.03 23.564C1162.33 23.464 1162.73 23.464 1163.03 23.464C1163.93 23.464 1164.63 23.664 1165.03 24.164C1165.43 24.664 1165.63 25.464 1165.63 26.564V34.264H1163.93V35.964H1171.13V34.264H1169.33V26.464C1169.33 24.664 1168.93 23.264 1168.23 22.364C1167.53 21.464 1166.23 20.964 1164.43 20.964C1163.83 20.964 1163.33 21.064 1162.93 21.164C1162.53 21.264 1162.13 21.464 1161.73 21.764C1161.33 22.064 1161.13 22.264 1160.83 22.664C1160.63 22.964 1160.43 23.364 1160.33 23.664H1160.23V20.964L1154.83 22.064V23.464L1156.63 23.864V34.264H1154.83V35.964H1161.83V35.864ZM1179.43 41.764C1182.03 41.764 1183.93 41.364 1185.23 40.464C1186.53 39.564 1187.13 38.464 1187.13 36.864C1187.13 35.664 1186.73 34.664 1185.83 33.964C1185.03 33.264 1183.63 32.864 1181.73 32.864H1178.43C1177.73 32.864 1177.23 32.764 1176.93 32.564C1176.63 32.364 1176.43 32.064 1176.43 31.664C1176.43 31.364 1176.53 31.064 1176.73 30.864C1176.93 30.564 1177.23 30.364 1177.53 30.264C1178.23 30.364 1178.83 30.464 1179.53 30.464C1180.43 30.464 1181.23 30.364 1182.03 30.164C1182.73 29.964 1183.43 29.664 1183.93 29.264C1184.43 28.864 1184.83 28.364 1185.13 27.764C1185.43 27.164 1185.53 26.464 1185.53 25.664C1185.53 24.864 1185.43 24.264 1185.13 23.764C1184.83 23.264 1184.53 22.764 1184.03 22.464V21.464H1184.13C1184.33 21.664 1184.53 21.864 1184.73 21.964C1185.03 22.064 1185.23 22.164 1185.53 22.164C1186.03 22.164 1186.53 21.964 1186.83 21.664C1187.13 21.364 1187.33 20.964 1187.33 20.464C1187.33 19.964 1187.13 19.464 1186.83 19.264C1186.53 18.964 1186.03 18.864 1185.53 18.864C1184.73 18.864 1184.13 19.064 1183.73 19.564C1183.33 20.064 1183.03 20.764 1182.93 21.864C1182.43 21.564 1181.83 21.364 1181.23 21.264C1180.63 21.164 1179.93 21.064 1179.23 21.064C1178.33 21.064 1177.53 21.164 1176.83 21.364C1176.13 21.564 1175.43 21.864 1174.93 22.264C1174.43 22.664 1174.03 23.164 1173.73 23.764C1173.43 24.364 1173.33 25.064 1173.33 25.764C1173.33 26.864 1173.63 27.764 1174.13 28.464C1174.63 29.164 1175.33 29.764 1176.33 30.064V30.164C1175.53 30.364 1174.93 30.664 1174.33 31.164C1173.83 31.664 1173.53 32.264 1173.53 33.064C1173.53 33.764 1173.73 34.364 1174.13 34.864C1174.53 35.364 1175.03 35.664 1175.63 35.764V35.864C1174.83 35.964 1174.03 36.364 1173.43 36.764C1172.83 37.264 1172.53 37.864 1172.53 38.564C1172.53 39.064 1172.63 39.564 1172.83 39.964C1173.03 40.364 1173.43 40.764 1173.93 41.064C1174.43 41.364 1175.13 41.564 1176.03 41.764C1177.13 41.664 1178.13 41.764 1179.43 41.764ZM1179.53 28.864C1177.93 28.864 1177.13 27.964 1177.13 26.164V25.364C1177.13 23.564 1177.93 22.664 1179.53 22.664C1181.13 22.664 1181.93 23.564 1181.93 25.364V26.164C1181.93 27.964 1181.13 28.864 1179.53 28.864ZM1180.53 40.064H1178.83C1176.73 40.064 1175.63 39.464 1175.63 38.164C1175.63 37.764 1175.73 37.364 1175.93 37.064C1176.13 36.764 1176.43 36.464 1176.73 36.264H1181.33C1182.23 36.264 1182.93 36.364 1183.33 36.664C1183.73 36.964 1184.03 37.364 1184.03 38.064C1184.03 38.764 1183.73 39.264 1183.13 39.664C1182.53 39.964 1181.73 40.064 1180.53 40.064Z" fill="#17202D"/>
<path d="M543.3 16C541 16.2 540.8 16.4 540.8 18.8V30C540.8 32.4 541 32.6 543.3 32.8V33.9H534.3V32.8C536.6 32.5 536.8 32.4 536.8 30V24.5H529V30C529 32.4 529.3 32.6 531.4 32.8V33.9H522.5V32.8C524.6 32.6 525 32.4 525 30V18.9C525 16.5 524.7 16.3 522.5 16.1V15H531.4V16.1C529.2 16.3 529 16.5 529 18.9V23H536.8V18.9C536.8 16.5 536.5 16.3 534.3 16.1V15H543.3V16Z" fill="#00AAA8"/>
<path d="M556 31C554.2 33.6 551.9 34.2 550.7 34.2C546.8 34.2 544.6 31.2999 544.6 27.8999C544.6 25.8999 545.6 23.9 546.8 22.7C548.1 21.4 549.7 20.7 551.3 20.7C554.1 20.7 556.1 22.9999 556.1 25.3999C556.1 25.8999 556.1 26.4 555.7 26.5C555.1 26.6 551.1 26.8 548.2 27C548.3 30.1 550 31.6 552.1 31.6C553.2 31.6 554.4 31.2 555.4 30.3L556 31ZM550.7 21.8C549.5 21.8 548.6 23.2 548.4 25.5C549.6 25.5 550.7 25.3999 551.9 25.3999C552.3 25.3999 552.5 25.3 552.5 24.8C552.5 23.3 551.8 21.8 550.7 21.8Z" fill="#00AAA8"/>
<path d="M567.3 34.2C566.5 34.2 565.9 33.9 565.5 33.6C565.1 33.3 564.9 32.8 564.7 32.5C563.6 33.2 562.2 34.2 561.6 34.2C559.1 34.2 557.7 32.3 557.7 30.5C557.7 29 558.4 28.3 559.9 27.7C561.6 27.1 563.9 26.4 564.6 25.8V24.5C564.6 23 564 22.2 562.8 22.2C562.3 22.2 561.9 22.4 561.6 22.8C561.3 23.3 561.1 23.8 560.9 24.7C560.7 25.5 560.2 25.7 559.7 25.7C558.9 25.7 558 25 558 24.2C558 23.7 558.3 23.3 559 22.8C560.3 21.9 562 21.1 563.6 20.7C564.8 20.7 565.7 21 566.6 21.5C567.8 22.4 568.2 23.6 568.2 25.1V30.1C568.2 31.5 568.7 31.8 569.1 31.8C569.4 31.8 569.7 31.7 570 31.6L570.3 32.6L567.3 34.2ZM564.7 26.8999C564.2 27.1999 563.7 27.5 563.1 27.8C562.2 28.3 561.7 28.8 561.7 29.8C561.7 31.4 562.8 32 563.5 32C563.9 32 564.3 32 564.8 31.5C564.7 30.1 564.7 28.1999 564.7 26.8999Z" fill="#00AAA8"/>
<path d="M571.1 33.8V32.8C572.8 32.5 572.8 32.4 572.8 30.6V17.4C572.8 15.9 572.6 15.7 571.1 15.4V14.5C573.1 14.3 575.1 13.9 576.5 13.5C576.5 14.8 576.5 16.1 576.5 17.4V30.6C576.5 32.5 576.6 32.6 578.2 32.8V33.8H571.1Z" fill="#00AAA8"/>
<path d="M585.7 33.8999C585.2 34.0999 584.7 34.2 584.5 34.2C582.3 34.2 580.9 33.2 580.9 30.5V22.3999H579V22L579.8 20.9H581V18.5C582 17.8 583.4 16.9 584.4 16.2L584.8 16.4C584.8 17.2 584.7 18.7 584.7 20.9H587.6C587.9 21.2 587.7 22.0999 587.4 22.3999H584.7V29.5C584.7 31.8 585.6 32 586.2 32C586.7 32 587.1 31.9 587.6 31.7L587.9 32.7L585.7 33.8999Z" fill="#00AAA8"/>
<path d="M597.1 33.8V32.8C598.4 32.6 598.5 32.4 598.5 30.8V25.7C598.5 23.5 597.6 22.7 596.4 22.7C595.7 22.7 594.9 22.9 594.3 23.5V30.8C594.3 32.4 594.4 32.6 595.8 32.8V33.8H588.9V32.8C590.3 32.6 590.6 32.5 590.6 30.7V17.3C590.6 16 590.4 15.6 588.8 15.4V14.5C590.9 14.3 592.9 13.9 594.3 13.5C594.3 14.6 594.3 15.7 594.3 16.8V22.5C595.3 21.5 596.7 20.6 598.2 20.6C600.7 20.6 602.2 22.3 602.2 25.4V30.7C602.2 32.5 602.4 32.6 603.8 32.8V33.8H597.1Z" fill="#00AAA8"/>
<path d="M630.1 28.8C629.7 30.3 628.9 32.5 628.5 33.5C627.7 33.7 625.4 34.3 623.2 34.3C615.4 34.3 612.2 29.3 612.2 24.7C612.2 18.7 616.8 14.6 623.7 14.6C626.2 14.6 628.5 15.2 629.2 15.3C629.3 16.7 629.5 18.8 629.8 20.1L628.6 20.3C628 18 627.1 17 625.6 16.4C624.9 16.1 623.9 16 623.1 16C618.9 16 616.8 19.5 616.8 24.1C616.8 29.4 619.5 33 623.5 33C625.9 33 627.6 31.7 629.1 28.5L630.1 28.8Z" fill="#00AAA8"/>
<path d="M639.2 20.6C643.3 20.6 645.9 23.7 645.9 27.2C645.9 31.9 642.5 34.2 639.1 34.2C634.7 34.2 632.2 30.9 632.2 27.5C632.2 23 635.8 20.6 639.2 20.6ZM638.8 21.8C637.6 21.8 636.3 23.1 636.3 26.7C636.3 30.3 637.5 33.1 639.3 33.1C640.4 33.1 641.6 32.3 641.6 28.1C641.7 24 640.6 21.8 638.8 21.8Z" fill="#00AAA8"/>
<path d="M662.8 33.1C662.1 33.2 659.4 33.6 657.1 34.2C657.1 33.6 657.1 33.1 657.1 32.5C656.6 32.8 655.9 33.3 655.3 33.6C654.6 34 654.2 34.1 653.8 34.1C651.3 34.1 647.8 32 647.8 27.7C647.8 23.7 651.3 20.6 655.8 20.6C656 20.6 656.5 20.6 657 20.7V17.4C657 15.9 656.9 15.7 655.1 15.5V14.5C657 14.3 659.4 13.9 660.8 13.5C660.8 14.6 660.8 15.6 660.8 16.9V30.2C660.8 31.8 661 31.9 662.1 32.1L662.7 32.2V33.1H662.8ZM657.1 23.4C656.8 22.6 656 21.9 654.9 21.9C654 21.9 652.1 22.5 652.1 26.7C652.1 30.5 654.2 31.9 655.5 31.9C656 31.9 656.5 31.8 657.1 31.4V23.4Z" fill="#00AAA8"/>
<path d="M675.6 31C673.8 33.6 671.5 34.2 670.3 34.2C666.4 34.2 664.2 31.2999 664.2 27.8999C664.2 25.8999 665.2 23.9 666.4 22.7C667.7 21.4 669.3 20.7 670.9 20.7C673.7 20.7 675.7 22.9999 675.7 25.3999C675.7 25.8999 675.7 26.4 675.3 26.5C674.7 26.6 670.7 26.8 667.8 27C667.9 30.1 669.6 31.6 671.7 31.6C672.8 31.6 674 31.2 675 30.3L675.6 31ZM670.3 21.8C669.1 21.8 668.2 23.2 668 25.5C669.2 25.5 670.3 25.3999 671.5 25.3999C671.9 25.3999 672.1 25.3 672.1 24.8C672.1 23.3 671.4 21.8 670.3 21.8Z" fill="#00AAA8"/>
<path d="M685.1 33.8H677.4V32.8C678.9 32.6 679.1 32.5 679.1 30.7V24.3C679.1 22.8 679 22.7 677.6 22.4V21.5C679.4 21.3 681 20.9 682.8 20.4C682.8 21.4 682.8 22.6 682.8 23.5C684.1 21.5 685.1 20.4 686.3 20.4C687.4 20.4 688.2 21.1 688.2 22.1C688.2 23.5 687.2 24.3 686.7 24.6C686.3 24.8 686 24.6 685.8 24.5C685.3 24.1 684.9 23.6 684.4 23.6C684 23.6 683.2 24 682.7 25.1V30.6C682.7 32.3 682.9 32.4 684.9 32.7V33.8H685.1Z" fill="#00AAA8"/>
</g>
</g>
<defs>
<clipPath id="clip0_2018_221">
<rect width="1197" height="672" fill="white"/>
</clipPath>
<clipPath id="clip1_2018_221">
<rect width="1179.5" height="836.2" fill="white" transform="translate(8 -106)"/>
</clipPath>
</defs>
</svg>
