<svg xmlns="http://www.w3.org/2000/svg" id="Layer_1" viewBox="0 0 48.26 49.12"><defs><style>      .cls-1, .cls-2 {        fill: none;      }      .cls-1, .cls-2, .cls-3, .cls-4, .cls-5 {        stroke-linecap: round;        stroke-linejoin: round;        stroke-width: 1.3px;      }      .cls-1, .cls-3, .cls-4 {        stroke: #fff;      }      .cls-2 {        stroke: #474b52;      }      .cls-6, .cls-5 {        fill: #28b24c;      }      .cls-3 {        fill: #ffc92e;      }      .cls-4 {        fill: #fff;      }      .cls-5 {        stroke: #28b24c;      }    </style></defs><g><g><g><polygon class="cls-2" points="11.54 14.27 8.14 19.71 6.1 17.67 8.14 19.71 11.54 14.27"></polygon><polygon class="cls-2" points="26.52 19.71 14.27 19.71 26.52 19.71 26.52 19.71"></polygon></g><g><polygon class="cls-2" points="11.54 23.11 8.14 28.56 6.1 26.52 8.14 28.56 11.54 23.11"></polygon><polygon class="cls-2" points="26.52 28.56 14.27 28.56 26.52 28.56 26.52 28.56"></polygon></g><g><polygon class="cls-2" points="11.54 31.96 8.14 37.41 6.1 35.37 8.14 37.41 11.54 31.96"></polygon><polygon class="cls-2" points="26.52 37.41 14.27 37.41 26.52 37.41 26.52 37.41"></polygon></g></g><path class="cls-2" d="M29.24,6.1h-4.46c.23.4.38.86.38,1.36v1.36H7.46v-1.36c0-.5.14-.96.38-1.36H3.37c-1.5,0-2.72,1.23-2.72,2.72v31.31c0,1.5,1.23,2.72,2.72,2.72h25.87c1.5,0,2.72-1.23,2.72-2.72V8.82c0-1.5-1.23-2.72-2.72-2.72Z"></path><path class="cls-5" d="M12.9,4.05c0-2.75,3.27-4.74,6.13-2.3.44.37.67.93.67,1.51v1.48s4.32,0,4.32,0c.62,0,1.12.5,1.12,1.12v2.96H7.46v-2.96c0-.62.5-1.12,1.12-1.12h4.32v-.68Z"></path><circle class="cls-4" cx="16.31" cy="4.05" r=".68"></circle><g><circle class="cls-6" cx="38.08" cy="37.41" r="9.94"></circle><g><path class="cls-1" d="M35.32,40.45c.69,1.38,2.07,1.38,2.07,1.38h1.44c1.1,0,2.01-.9,2.01-2.01v-.48c0-1.06-.87-1.93-1.93-1.93h-1.66c-1.06,0-1.93-.87-1.93-1.93h0c0-1.06.87-1.93,1.93-1.93h1.52s1.38,0,2.07,1.38"></path><line class="cls-3" x1="38.08" y1="31.89" x2="38.08" y2="33.55"></line><line class="cls-3" x1="38.08" y1="41.83" x2="38.08" y2="42.93"></line></g></g></g><g><line class="cls-2" x1="40.41" y1="24.76" x2="40.41" y2="13.69"></line><polyline class="cls-2" points="35.21 18.89 40.41 13.7 45.61 18.89"></polyline></g></svg>